# 3ds Max Wavefront OBJ Exporter v0.97b - (c)2007 guruware
# File Created: 29.04.2015 18:41:18

mtllib four.mtl

#
# object four
#

v  13.0934 5.0000 1.8205
v  13.0934 5.0000 17.1205
v  13.0934 -0.0000 17.1205
v  13.0934 0.0000 1.8205
v  21.7934 5.0000 17.1205
v  21.7934 -0.0000 17.1205
v  21.7934 5.0000 24.3205
v  21.7934 -0.0000 24.3205
v  13.0934 5.0000 24.3205
v  13.0934 -0.0000 24.3205
v  13.0934 5.0000 65.9205
v  13.0934 -0.0000 65.9205
v  6.6934 5.0000 65.9205
v  6.6934 -0.0000 65.9205
v  -22.7066 5.0000 24.3205
v  -22.7066 -0.0000 24.3205
v  -22.7066 5.0000 17.1205
v  -22.7066 -0.0000 17.1205
v  5.1934 5.0000 17.1205
v  5.1934 -0.0000 17.1205
v  5.1934 5.0000 1.8205
v  5.1934 0.0000 1.8205
v  -14.9613 5.0000 24.3205
v  5.1934 5.0000 53.1846
v  5.1934 -0.0000 53.1846
v  -14.9613 -0.0000 24.3205
v  5.1934 5.0000 24.3205
v  5.1934 -0.0000 24.3205
# 28 vertices

vn 1.0000 0.0000 -0.0000
vn 0.0000 0.0000 -1.0000
vn 0.0000 -0.0000 1.0000
vn -0.8166 -0.0000 0.5771
vn -1.0000 0.0000 -0.0000
vn 0.8199 0.0000 -0.5725
vn 0.0000 1.0000 0.0000
vn 0.0000 -1.0000 -0.0000
# 8 vertex normals

vt 0.7571 0.2004 0.0000
vt 0.6102 0.2004 0.0000
vt 0.6102 0.1524 0.0000
vt 0.7571 0.1524 0.0000
vt 0.5406 0.8476 0.0000
vt 0.5406 0.7641 0.0000
vt 0.5886 0.7641 0.0000
vt 0.5886 0.8476 0.0000
vt 0.4832 0.1063 0.0000
vt 0.4832 0.0372 0.0000
vt 0.5313 0.0372 0.0000
vt 0.5313 0.1063 0.0000
vt 0.4848 0.8476 0.0000
vt 0.4848 0.7641 0.0000
vt 0.5329 0.7641 0.0000
vt 0.5329 0.8476 0.0000
vt 0.4096 0.9900 0.0000
vt 0.0100 0.9900 0.0000
vt 0.0100 0.9420 0.0000
vt 0.4096 0.9420 0.0000
vt 0.5634 0.9188 0.0000
vt 0.5019 0.9188 0.0000
vt 0.5019 0.8708 0.0000
vt 0.5634 0.8708 0.0000
vt 0.4787 0.9188 0.0000
vt 0.0792 0.9188 0.0000
vt 0.0792 0.8708 0.0000
vt 0.4787 0.8708 0.0000
vt 0.0100 0.9188 0.0000
vt 0.0100 0.8708 0.0000
vt 0.8781 0.1292 0.0000
vt 0.6102 0.1292 0.0000
vt 0.6102 0.0812 0.0000
vt 0.8781 0.0812 0.0000
vt 0.5797 0.9900 0.0000
vt 0.4327 0.9900 0.0000
vt 0.4327 0.9420 0.0000
vt 0.5797 0.9420 0.0000
vt 0.5390 0.1063 0.0000
vt 0.5390 0.0304 0.0000
vt 0.5870 0.0304 0.0000
vt 0.5870 0.1063 0.0000
vt 0.9483 0.0580 0.0000
vt 0.6102 0.0580 0.0000
vt 0.6102 0.0100 0.0000
vt 0.9483 0.0100 0.0000
vt 0.8890 0.4896 0.0000
vt 0.6118 0.4896 0.0000
vt 0.6118 0.4416 0.0000
vt 0.8890 0.4416 0.0000
vt 0.8054 0.5608 0.0000
vt 0.6118 0.5608 0.0000
vt 0.6118 0.5128 0.0000
vt 0.8054 0.5128 0.0000
vt 0.4447 0.5304 0.0000
vt 0.1856 0.7726 0.0000
vt 0.0593 0.8476 0.0000
vt 0.2063 0.6720 0.0000
vt 0.1469 0.7073 0.0000
vt 0.0205 0.7824 0.0000
vt 0.0100 0.4769 0.0000
vt 0.1075 0.5056 0.0000
vt 0.0695 0.4416 0.0000
vt 0.5572 0.4803 0.0000
vt 0.2451 0.7372 0.0000
vt 0.5886 0.5332 0.0000
vt 0.2878 0.8091 0.0000
vt 0.2283 0.8444 0.0000
vt 0.4433 0.3157 0.0000
vt 0.0463 0.0131 0.0000
vt 0.1754 0.0834 0.0000
vt 0.1998 0.1831 0.0000
vt 0.1391 0.1500 0.0000
vt 0.0100 0.0797 0.0000
vt 0.0109 0.3854 0.0000
vt 0.1072 0.3531 0.0000
vt 0.0716 0.4184 0.0000
vt 0.5576 0.3616 0.0000
vt 0.2361 0.1165 0.0000
vt 0.5870 0.3076 0.0000
vt 0.2761 0.0431 0.0000
vt 0.2153 0.0100 0.0000
# 82 texture coords

g four
usemtl 03___Default
s 1
f 1/1/1 2/2/1 3/3/1 
f 1/1/1 3/3/1 4/4/1 
s 4
f 2/5/2 5/6/2 6/7/2 
f 2/5/2 6/7/2 3/8/2 
s 2
f 5/9/1 7/10/1 8/11/1 
f 5/9/1 8/11/1 6/12/1 
s 4
f 7/13/3 9/14/3 10/15/3 
f 7/13/3 10/15/3 8/16/3 
s 2
f 9/17/1 11/18/1 12/19/1 
f 9/17/1 12/19/1 10/20/1 
s 4
f 11/21/3 13/22/3 14/23/3 
f 11/21/3 14/23/3 12/24/3 
s 2
f 13/25/4 15/26/4 16/27/4 
f 13/25/4 16/27/4 14/28/4 
s 4
f 15/26/5 17/29/5 18/30/5 
f 15/26/5 18/30/5 16/27/5 
s 2
f 17/31/2 19/32/2 20/33/2 
f 17/31/2 20/33/2 18/34/2 
s 4
f 19/35/5 21/36/5 22/37/5 
f 19/35/5 22/37/5 20/38/5 
s 2
f 21/39/2 1/40/2 4/41/2 
f 21/39/2 4/41/2 22/42/2 
s 1
f 23/43/6 24/44/6 25/45/6 
f 23/43/6 25/45/6 26/46/6 
s 4
f 24/47/5 27/48/5 28/49/5 
f 24/47/5 28/49/5 25/50/5 
s 2
f 27/51/3 23/52/3 26/53/3 
f 27/51/3 26/53/3 28/54/3 
s 16
f 24/55/7 2/56/7 1/57/7 
f 1/57/7 27/58/7 24/55/7 
f 19/59/7 1/57/7 21/60/7 
f 19/59/7 27/58/7 1/57/7 
f 17/61/7 27/58/7 19/59/7 
f 17/61/7 23/62/7 27/58/7 
f 15/63/7 23/62/7 17/61/7 
f 13/64/7 23/62/7 15/63/7 
f 13/64/7 24/55/7 23/62/7 
f 9/65/7 13/64/7 11/66/7 
f 9/65/7 24/55/7 13/64/7 
f 9/65/7 2/56/7 24/55/7 
f 7/67/7 2/56/7 9/65/7 
f 7/67/7 5/68/7 2/56/7 
f 25/69/8 4/70/8 3/71/8 
f 4/70/8 25/69/8 28/72/8 
f 20/73/8 22/74/8 4/70/8 
f 20/73/8 4/70/8 28/72/8 
f 18/75/8 20/73/8 28/72/8 
f 18/75/8 28/72/8 26/76/8 
f 16/77/8 18/75/8 26/76/8 
f 14/78/8 16/77/8 26/76/8 
f 14/78/8 26/76/8 25/69/8 
f 10/79/8 12/80/8 14/78/8 
f 10/79/8 14/78/8 25/69/8 
f 10/79/8 25/69/8 3/71/8 
f 8/81/8 10/79/8 3/71/8 
f 8/81/8 3/71/8 6/82/8 
# 56 faces

