# 3ds Max Wavefront OBJ Exporter v0.97b - (c)2007 guruware
# File Created: 29.04.2015 18:22:56

mtllib one.mtl

#
# object one
#

v  3.9977 5.0000 70.6864
v  -1.0929 5.0000 70.6864
v  -1.0929 -0.0000 70.6864
v  3.9977 -0.0000 70.6864
v  -1.7379 5.0000 69.4935
v  -1.7379 -0.0000 69.4935
v  -2.5004 5.0000 68.2899
v  -2.5004 -0.0000 68.2899
v  -3.3806 5.0000 67.0757
v  -3.3806 -0.0000 67.0757
v  -4.3784 5.0000 65.8507
v  -4.3784 -0.0000 65.8507
v  -5.4938 5.0000 64.6150
v  -5.4938 -0.0000 64.6150
v  -6.7267 5.0000 63.3685
v  -6.7267 -0.0000 63.3685
v  -8.0773 5.0000 62.1114
v  -8.0773 -0.0000 62.1114
v  -9.5205 5.0000 60.8757
v  -9.5205 -0.0000 60.8757
v  -11.0315 5.0000 59.6935
v  -11.0315 -0.0000 59.6935
v  -12.6102 5.0000 58.5650
v  -12.6102 -0.0000 58.5650
v  -14.2566 5.0000 57.4900
v  -14.2566 -0.0000 57.4900
v  -15.9708 5.0000 56.4685
v  -15.9708 -0.0000 56.4685
v  -17.7527 5.0000 55.5007
v  -17.7527 -0.0000 55.5007
v  -19.6023 5.0000 54.5864
v  -19.6023 -0.0000 54.5864
v  -19.6023 5.0000 46.9739
v  -19.6023 -0.0000 46.9739
v  -18.5363 5.0000 47.3891
v  -18.5363 -0.0000 47.3891
v  -17.4321 5.0000 47.8596
v  -17.4321 -0.0000 47.8596
v  -16.2896 5.0000 48.3855
v  -16.2896 -0.0000 48.3855
v  -15.1089 5.0000 48.9667
v  -15.1089 -0.0000 48.9667
v  -13.8900 5.0000 49.6034
v  -13.8900 -0.0000 49.6034
v  -12.6328 5.0000 50.2953
v  -12.6328 -0.0000 50.2953
v  -11.3375 5.0000 51.0426
v  -11.3375 -0.0000 51.0426
v  -10.0590 5.0000 51.8176
v  -10.0590 -0.0000 51.8176
v  -8.8526 5.0000 52.5926
v  -8.8526 -0.0000 52.5926
v  -7.7184 5.0000 53.3676
v  -7.7184 -0.0000 53.3676
v  -6.6562 5.0000 54.1426
v  -6.6562 -0.0000 54.1426
v  -5.6661 5.0000 54.9176
v  -5.6661 -0.0000 54.9176
v  -4.7482 5.0000 55.6926
v  -4.7482 -0.0000 55.6926
v  -3.9023 5.0000 56.4676
v  -3.9023 -0.0000 56.4676
v  -3.9023 5.0000 6.2864
v  -3.9023 0.0000 6.2864
v  3.9977 5.0000 6.2864
v  3.9977 0.0000 6.2864
# 66 vertices

vn 0.0000 -0.0000 1.0000
vn -0.8797 -0.0000 0.4756
vn -0.8627 -0.0000 0.5057
vn -0.8276 -0.0000 0.5613
vn -0.7928 -0.0000 0.6094
vn -0.7591 -0.0000 0.6510
vn -0.7268 -0.0000 0.6868
vn -0.6963 -0.0000 0.7178
vn -0.6660 -0.0000 0.7459
vn -0.6334 -0.0000 0.7738
vn -0.5990 -0.0000 0.8007
vn -0.5643 -0.0000 0.8256
vn -0.5294 -0.0000 0.8484
vn -0.4947 -0.0000 0.8691
vn -0.4603 -0.0000 0.8878
vn -0.4431 -0.0000 0.8965
vn -1.0000 0.0000 -0.0000
vn 0.3629 0.0000 -0.9318
vn 0.3775 0.0000 -0.9260
vn 0.4051 0.0000 -0.9143
vn 0.4299 0.0000 -0.9029
vn 0.4523 0.0000 -0.8918
vn 0.4726 0.0000 -0.8813
vn 0.4910 0.0000 -0.8712
vn 0.5091 0.0000 -0.8607
vn 0.5295 0.0000 -0.8483
vn 0.5524 0.0000 -0.8336
vn 0.5769 0.0000 -0.8168
vn 0.6030 0.0000 -0.7977
vn 0.6309 0.0000 -0.7759
vn 0.6605 0.0000 -0.7509
vn 0.6755 0.0000 -0.7373
vn 0.0000 0.0000 -1.0000
vn 1.0000 0.0000 -0.0000
vn 0.0000 1.0000 0.0000
vn 0.0000 -1.0000 -0.0000
# 36 vertex normals

vt 0.1354 0.2930 0.0000
vt 0.2128 0.2930 0.0000
vt 0.2128 0.3691 0.0000
vt 0.1354 0.3691 0.0000
vt 0.5915 0.6046 0.0000
vt 0.6121 0.6046 0.0000
vt 0.6121 0.6807 0.0000
vt 0.5915 0.6807 0.0000
vt 0.6337 0.6046 0.0000
vt 0.6337 0.6807 0.0000
vt 0.6563 0.6046 0.0000
vt 0.6563 0.6807 0.0000
vt 0.6800 0.6046 0.0000
vt 0.6800 0.6807 0.0000
vt 0.7046 0.6046 0.0000
vt 0.7046 0.6807 0.0000
vt 0.7302 0.6046 0.0000
vt 0.7302 0.6807 0.0000
vt 0.3860 0.6046 0.0000
vt 0.4066 0.6046 0.0000
vt 0.4066 0.6807 0.0000
vt 0.3860 0.6807 0.0000
vt 0.4285 0.6046 0.0000
vt 0.4285 0.6807 0.0000
vt 0.4515 0.6046 0.0000
vt 0.4515 0.6807 0.0000
vt 0.4755 0.6046 0.0000
vt 0.4755 0.6807 0.0000
vt 0.5006 0.6046 0.0000
vt 0.5006 0.6807 0.0000
vt 0.5267 0.6046 0.0000
vt 0.5267 0.6807 0.0000
vt 0.5538 0.6046 0.0000
vt 0.5538 0.6807 0.0000
vt 0.5819 0.6046 0.0000
vt 0.5819 0.6807 0.0000
vt 0.0100 0.2930 0.0000
vt 0.1258 0.2930 0.0000
vt 0.1258 0.3691 0.0000
vt 0.0100 0.3691 0.0000
vt 0.3860 0.6902 0.0000
vt 0.4022 0.6902 0.0000
vt 0.4022 0.7663 0.0000
vt 0.3860 0.7663 0.0000
vt 0.4190 0.6902 0.0000
vt 0.4190 0.7663 0.0000
vt 0.4364 0.6902 0.0000
vt 0.4364 0.7663 0.0000
vt 0.4544 0.6902 0.0000
vt 0.4544 0.7663 0.0000
vt 0.4729 0.6902 0.0000
vt 0.4729 0.7663 0.0000
vt 0.4921 0.6902 0.0000
vt 0.4921 0.7663 0.0000
vt 0.5118 0.6902 0.0000
vt 0.5118 0.7663 0.0000
vt 0.5312 0.6902 0.0000
vt 0.5312 0.7663 0.0000
vt 0.5496 0.6902 0.0000
vt 0.5496 0.7663 0.0000
vt 0.5669 0.6902 0.0000
vt 0.5669 0.7663 0.0000
vt 0.5830 0.6902 0.0000
vt 0.5830 0.7663 0.0000
vt 0.5981 0.6902 0.0000
vt 0.5981 0.7663 0.0000
vt 0.6121 0.6902 0.0000
vt 0.6121 0.7663 0.0000
vt 0.6249 0.6902 0.0000
vt 0.6249 0.7663 0.0000
vt 0.7736 0.9850 0.0000
vt 0.0100 0.9850 0.0000
vt 0.0100 0.9089 0.0000
vt 0.7736 0.9089 0.0000
vt 0.7397 0.6046 0.0000
vt 0.8599 0.6046 0.0000
vt 0.8599 0.6807 0.0000
vt 0.7397 0.6807 0.0000
vt 0.9900 0.8804 0.0000
vt 0.0100 0.8804 0.0000
vt 0.0100 0.8043 0.0000
vt 0.9900 0.8043 0.0000
vt 0.2550 0.7663 0.0000
vt 0.3645 0.7501 0.0000
vt 0.3708 0.7663 0.0000
vt 0.3574 0.7333 0.0000
vt 0.3494 0.7159 0.0000
vt 0.2411 0.7381 0.0000
vt 0.3405 0.6979 0.0000
vt 0.3308 0.6794 0.0000
vt 0.2264 0.7110 0.0000
vt 0.3203 0.6602 0.0000
vt 0.3089 0.6405 0.0000
vt 0.2108 0.6849 0.0000
vt 0.2971 0.6211 0.0000
vt 0.1945 0.6599 0.0000
vt 0.2853 0.6027 0.0000
vt 0.2735 0.5855 0.0000
vt 0.1773 0.6359 0.0000
vt 0.2618 0.5693 0.0000
vt 0.1593 0.6129 0.0000
vt 0.2500 0.5542 0.0000
vt 0.2382 0.5403 0.0000
vt 0.1405 0.5909 0.0000
vt 0.2264 0.5274 0.0000
vt 0.9900 0.5274 0.0000
vt 0.0100 0.4072 0.0000
vt 0.9900 0.4072 0.0000
vt 0.0100 0.4846 0.0000
vt 0.0282 0.4944 0.0000
vt 0.0465 0.5060 0.0000
vt 0.0649 0.5194 0.0000
vt 0.0836 0.5346 0.0000
vt 0.1024 0.5516 0.0000
vt 0.1214 0.5704 0.0000
vt 0.7450 0.3691 0.0000
vt 0.6292 0.3691 0.0000
vt 0.6355 0.3529 0.0000
vt 0.6426 0.3361 0.0000
vt 0.6506 0.3187 0.0000
vt 0.7589 0.3410 0.0000
vt 0.6595 0.3008 0.0000
vt 0.6692 0.2822 0.0000
vt 0.7736 0.3139 0.0000
vt 0.6797 0.2631 0.0000
vt 0.6911 0.2434 0.0000
vt 0.7892 0.2878 0.0000
vt 0.7029 0.2239 0.0000
vt 0.8055 0.2627 0.0000
vt 0.7147 0.2055 0.0000
vt 0.7265 0.1883 0.0000
vt 0.8227 0.2387 0.0000
vt 0.7382 0.1721 0.0000
vt 0.8407 0.2157 0.0000
vt 0.7500 0.1571 0.0000
vt 0.7618 0.1431 0.0000
vt 0.8595 0.1937 0.0000
vt 0.7736 0.1302 0.0000
vt 0.0100 0.1302 0.0000
vt 0.0100 0.0100 0.0000
vt 0.9900 0.0100 0.0000
vt 0.9900 0.0875 0.0000
vt 0.9718 0.0973 0.0000
vt 0.9535 0.1089 0.0000
vt 0.9351 0.1223 0.0000
vt 0.9164 0.1375 0.0000
vt 0.8976 0.1544 0.0000
vt 0.8786 0.1732 0.0000
# 148 texture coords

g one
usemtl 03___Default
s 1
f 1/1/1 2/2/1 3/3/1 
f 1/1/1 3/3/1 4/4/1 
s 4
f 2/5/2 5/6/3 6/7/3 
f 2/5/2 6/7/3 3/8/2 
f 5/6/3 7/9/4 8/10/4 
f 5/6/3 8/10/4 6/7/3 
f 7/9/4 9/11/5 10/12/5 
f 7/9/4 10/12/5 8/10/4 
f 9/11/5 11/13/6 12/14/6 
f 9/11/5 12/14/6 10/12/5 
f 11/13/6 13/15/7 14/16/7 
f 11/13/6 14/16/7 12/14/6 
f 13/15/7 15/17/8 16/18/8 
f 13/15/7 16/18/8 14/16/7 
f 15/19/8 17/20/9 18/21/9 
f 15/19/8 18/21/9 16/22/8 
f 17/20/9 19/23/10 20/24/10 
f 17/20/9 20/24/10 18/21/9 
f 19/23/10 21/25/11 22/26/11 
f 19/23/10 22/26/11 20/24/10 
f 21/25/11 23/27/12 24/28/12 
f 21/25/11 24/28/12 22/26/11 
f 23/27/12 25/29/13 26/30/13 
f 23/27/12 26/30/13 24/28/12 
f 25/29/13 27/31/14 28/32/14 
f 25/29/13 28/32/14 26/30/13 
f 27/31/14 29/33/15 30/34/15 
f 27/31/14 30/34/15 28/32/14 
f 29/33/15 31/35/16 32/36/16 
f 29/33/15 32/36/16 30/34/15 
s 2
f 31/37/17 33/38/17 34/39/17 
f 31/37/17 34/39/17 32/40/17 
s 4
f 33/41/18 35/42/19 36/43/19 
f 33/41/18 36/43/19 34/44/18 
f 35/42/19 37/45/20 38/46/20 
f 35/42/19 38/46/20 36/43/19 
f 37/45/20 39/47/21 40/48/21 
f 37/45/20 40/48/21 38/46/20 
f 39/47/21 41/49/22 42/50/22 
f 39/47/21 42/50/22 40/48/21 
f 41/49/22 43/51/23 44/52/23 
f 41/49/22 44/52/23 42/50/22 
f 43/51/23 45/53/24 46/54/24 
f 43/51/23 46/54/24 44/52/23 
f 45/53/24 47/55/25 48/56/25 
f 45/53/24 48/56/25 46/54/24 
f 47/55/25 49/57/26 50/58/26 
f 47/55/25 50/58/26 48/56/25 
f 49/57/26 51/59/27 52/60/27 
f 49/57/26 52/60/27 50/58/26 
f 51/59/27 53/61/28 54/62/28 
f 51/59/27 54/62/28 52/60/27 
f 53/61/28 55/63/29 56/64/29 
f 53/61/28 56/64/29 54/62/28 
f 55/63/29 57/65/30 58/66/30 
f 55/63/29 58/66/30 56/64/29 
f 57/65/30 59/67/31 60/68/31 
f 57/65/30 60/68/31 58/66/30 
f 59/67/31 61/69/32 62/70/32 
f 59/67/31 62/70/32 60/68/31 
s 2
f 61/71/17 63/72/17 64/73/17 
f 61/71/17 64/73/17 62/74/17 
s 4
f 63/75/33 65/76/33 66/77/33 
f 63/75/33 66/77/33 64/78/33 
s 2
f 65/79/34 1/80/34 4/81/34 
f 65/79/34 4/81/34 66/82/34 
s 16
f 31/83/35 35/84/35 33/85/35 
f 31/83/35 37/86/35 35/84/35 
f 31/83/35 39/87/35 37/86/35 
f 29/88/35 39/87/35 31/83/35 
f 29/88/35 41/89/35 39/87/35 
f 29/88/35 43/90/35 41/89/35 
f 27/91/35 43/90/35 29/88/35 
f 27/91/35 45/92/35 43/90/35 
f 27/91/35 47/93/35 45/92/35 
f 25/94/35 47/93/35 27/91/35 
f 25/94/35 49/95/35 47/93/35 
f 23/96/35 49/95/35 25/94/35 
f 23/96/35 51/97/35 49/95/35 
f 23/96/35 53/98/35 51/97/35 
f 21/99/35 53/98/35 23/96/35 
f 21/99/35 55/100/35 53/98/35 
f 19/101/35 55/100/35 21/99/35 
f 19/101/35 57/102/35 55/100/35 
f 19/101/35 59/103/35 57/102/35 
f 17/104/35 59/103/35 19/101/35 
f 17/104/35 61/105/35 59/103/35 
f 63/106/35 1/107/35 65/108/35 
f 61/105/35 1/107/35 63/106/35 
f 61/105/35 2/109/35 1/107/35 
f 61/105/35 5/110/35 2/109/35 
f 61/105/35 7/111/35 5/110/35 
f 61/105/35 9/112/35 7/111/35 
f 61/105/35 11/113/35 9/112/35 
f 61/105/35 13/114/35 11/113/35 
f 61/105/35 15/115/35 13/114/35 
f 17/104/35 15/115/35 61/105/35 
f 32/116/36 34/117/36 36/118/36 
f 32/116/36 36/118/36 38/119/36 
f 32/116/36 38/119/36 40/120/36 
f 30/121/36 32/116/36 40/120/36 
f 30/121/36 40/120/36 42/122/36 
f 30/121/36 42/122/36 44/123/36 
f 28/124/36 30/121/36 44/123/36 
f 28/124/36 44/123/36 46/125/36 
f 28/124/36 46/125/36 48/126/36 
f 26/127/36 28/124/36 48/126/36 
f 26/127/36 48/126/36 50/128/36 
f 24/129/36 26/127/36 50/128/36 
f 24/129/36 50/128/36 52/130/36 
f 24/129/36 52/130/36 54/131/36 
f 22/132/36 24/129/36 54/131/36 
f 22/132/36 54/131/36 56/133/36 
f 20/134/36 22/132/36 56/133/36 
f 20/134/36 56/133/36 58/135/36 
f 20/134/36 58/135/36 60/136/36 
f 18/137/36 20/134/36 60/136/36 
f 18/137/36 60/136/36 62/138/36 
f 64/139/36 66/140/36 4/141/36 
f 62/138/36 64/139/36 4/141/36 
f 62/138/36 4/141/36 3/142/36 
f 62/138/36 3/142/36 6/143/36 
f 62/138/36 6/143/36 8/144/36 
f 62/138/36 8/144/36 10/145/36 
f 62/138/36 10/145/36 12/146/36 
f 62/138/36 12/146/36 14/147/36 
f 62/138/36 14/147/36 16/148/36 
f 18/137/36 62/138/36 16/148/36 
# 128 faces

