# 3ds Max Wavefront OBJ Exporter v0.97b - (c)2007 guruware
# File Created: 17.06.2015 23:31:41

mtllib chair.mtl

#
# object Box001
#

v  11.2878 14.5244 44.0150
v  6.2878 14.5244 44.0150
v  6.2878 13.2366 44.0150
v  11.2878 13.2366 44.0150
v  10.7532 8.8805 22.3488
v  6.2878 8.8805 22.3488
v  6.2878 0.1682 22.3488
v  10.7532 0.1682 22.3488
v  6.2878 -4.8318 22.3735
v  10.7532 -4.8318 22.3488
v  6.2878 -9.2972 22.3735
v  10.7532 -9.2972 22.3488
v  6.2878 9.6337 22.3735
v  1.2878 9.6337 22.3735
v  1.2878 5.1682 22.3735
v  1.2878 0.1682 22.3735
v  1.2878 -4.8318 22.3735
v  1.2878 -9.2972 22.3735
v  -3.7122 9.6337 22.3735
v  -3.7122 8.8805 22.3735
v  -3.7122 0.1682 22.3735
v  -3.7122 -4.8318 22.3735
v  -3.7122 -9.2972 22.3735
v  -3.7122 14.5244 44.0150
v  -8.7122 14.5244 44.0150
v  -8.7122 13.2366 44.0150
v  -3.7122 13.2366 44.0150
v  -8.1776 8.8805 22.3735
v  -8.1776 0.1682 22.3735
v  -8.1776 -4.8318 22.3735
v  -8.1776 -9.2972 22.3735
v  9.9367 9.3785 7.8420
v  9.9367 5.9580 7.8420
v  7.6389 5.9580 7.8420
v  7.6389 9.3785 7.8420
v  11.2878 5.1682 20.8735
v  11.2878 0.1682 20.8735
v  6.2878 0.1682 20.8735
v  6.2878 5.1682 20.8735
v  11.2878 -4.8318 20.8735
v  6.2878 -4.8318 20.8735
v  9.9367 -5.6215 7.8420
v  9.9367 -9.0420 7.8420
v  7.6389 -9.0420 7.8420
v  7.6389 -5.6215 7.8420
v  6.2878 10.1682 20.8735
v  1.2878 5.1682 20.8735
v  1.2878 10.1682 20.8735
v  1.2878 0.1682 20.8735
v  1.2878 -4.8318 20.8735
v  6.2878 -9.8318 20.8735
v  1.2878 -9.8318 20.8735
v  -3.7122 5.1682 20.8735
v  -3.7122 10.1682 20.8735
v  -3.7122 0.1682 20.8735
v  -3.7122 -4.8318 20.8735
v  -3.7122 -9.8318 20.8735
v  -5.0633 9.3785 7.8420
v  -5.0633 5.9580 7.8420
v  -7.3611 5.9580 7.8420
v  -7.3611 9.3785 7.8420
v  -8.7122 0.1682 20.8735
v  -8.7122 5.1682 20.8735
v  -8.7122 -4.8318 20.8735
v  -5.0633 -5.6215 7.8420
v  -5.0633 -9.0420 7.8420
v  -7.3611 -9.0420 7.8420
v  -7.3611 -5.6215 7.8420
v  11.2878 10.1682 21.8389
v  11.2878 8.3848 22.1485
v  11.2878 10.1682 20.8735
v  11.2878 0.1682 21.8142
v  11.2878 -4.8318 21.8142
v  11.2878 -9.8318 21.8142
v  11.2878 -9.8318 20.8735
v  6.2878 -9.8318 21.8389
v  1.2878 -9.8318 21.8389
v  -3.7122 -9.8318 21.8389
v  -8.7122 -9.8318 21.8389
v  -8.7122 -9.8318 20.8735
v  -8.7122 -4.8318 21.8389
v  -8.7122 0.1682 21.8389
v  -8.7122 8.3848 22.1732
v  -8.7122 10.1682 21.8389
v  -8.7122 10.1682 20.8735
v  -3.7122 10.1682 21.8389
v  1.2878 10.1682 21.8389
v  6.2878 10.1682 21.8389
v  9.9790 5.9379 8.4106
v  9.9790 9.3986 8.4106
v  7.5966 5.9379 8.4106
v  7.5966 9.3986 8.4106
v  9.9790 -5.6014 8.4106
v  7.5966 -5.6014 8.4106
v  9.9790 -9.0621 8.4106
v  7.5966 -9.0621 8.4106
v  -5.0210 5.9379 8.4106
v  -5.0210 9.3986 8.4106
v  -7.4034 5.9379 8.4106
v  -7.4034 9.3986 8.4106
v  -5.0210 -9.0621 8.4106
v  -5.0210 -5.6014 8.4106
v  -7.4034 -9.0621 8.4106
v  -7.4034 -5.6014 8.4106
v  11.2878 10.2737 22.8976
v  6.2878 10.2463 22.9023
v  6.2878 12.3463 37.1367
v  6.2878 11.0585 37.1367
v  11.2878 8.9860 22.8976
v  -3.7122 10.2463 22.9023
v  -3.7122 11.0585 37.1367
v  -3.7122 12.3463 37.1367
v  -8.7122 10.2737 22.8976
v  -8.7122 8.9860 22.8976
v  11.4166 11.6535 41.4738
v  6.5632 11.6535 41.4738
v  6.5632 11.2121 38.8123
v  11.4166 11.2121 38.8123
v  6.5632 10.7320 35.9178
v  11.4166 10.7320 35.9178
v  6.5632 10.2520 33.0232
v  11.4166 10.2520 33.0232
v  6.5632 9.8106 30.3618
v  11.4166 9.8106 30.3618
v  1.2849 11.6535 41.4738
v  1.2849 11.2121 38.8123
v  1.2849 10.7320 35.9178
v  1.2849 10.2520 33.0232
v  1.2849 9.8106 30.3618
v  -3.9934 11.6535 41.4738
v  -3.9934 11.2121 38.8123
v  -3.9934 10.7320 35.9178
v  -3.9934 10.2520 33.0232
v  -3.9934 9.8106 30.3618
v  -8.8468 11.6535 41.4738
v  -8.8468 11.2121 38.8123
v  -8.8468 10.7320 35.9178
v  -8.8468 10.2520 33.0232
v  -8.8468 9.8106 30.3618
v  11.8415 12.4391 41.5612
v  11.8415 11.9591 38.6667
v  6.5632 11.9591 38.6667
v  6.5632 12.4391 41.5612
v  11.8415 11.4790 35.7722
v  6.5632 11.4790 35.7722
v  11.8415 10.9990 32.8776
v  6.5632 10.9990 32.8776
v  11.8415 10.5189 29.9831
v  6.5632 10.5189 29.9831
v  1.2849 11.9591 38.6667
v  1.2849 12.4391 41.5612
v  1.2849 11.4790 35.7722
v  1.2849 10.9990 32.8776
v  1.2849 10.5189 29.9831
v  -3.9934 11.9591 38.6667
v  -3.9934 12.4391 41.5612
v  -3.9934 11.4790 35.7722
v  -3.9934 10.9990 32.8776
v  -3.9934 10.5189 29.9831
v  -9.2717 11.9591 38.6667
v  -9.2717 12.4391 41.5612
v  -9.2717 11.4790 35.7722
v  -9.2717 10.9990 32.8776
v  -9.2717 10.5189 29.9831
v  11.8415 11.9176 41.6628
v  11.8415 11.4376 38.7683
v  11.8415 10.9575 35.8738
v  11.8415 10.4775 32.9793
v  11.8415 9.9974 30.0848
v  6.5632 9.9974 30.0848
v  1.2849 9.9974 30.0848
v  -3.9934 9.9974 30.0848
v  -9.2717 9.9974 30.0848
v  -9.2717 10.4775 32.9793
v  -9.2717 10.9575 35.8738
v  -9.2717 11.4376 38.7683
v  -9.2717 11.9176 41.6628
v  -3.9934 11.9176 41.6628
v  1.2849 11.9176 41.6628
v  6.5632 11.9176 41.6628
# 180 vertices

vn 0.0000 -0.0000 1.0000
vn 0.0147 -0.0154 0.9998
vn 0.0019 0.0019 1.0000
vn 0.0013 0.0013 1.0000
vn 0.0021 0.0018 1.0000
vn 0.0055 0.0000 1.0000
vn 0.0028 -0.0000 1.0000
vn 0.0055 -0.0000 1.0000
vn 0.0157 -0.0176 0.9997
vn 0.0022 -0.0005 1.0000
vn 0.0025 0.0000 1.0000
vn 0.0006 0.0006 1.0000
vn 0.0000 0.0000 1.0000
vn -0.0000 0.0000 -1.0000
vn -0.0000 -0.0000 -1.0000
vn 1.0000 0.0000 -0.0000
vn 0.9994 0.0000 -0.0339
vn 0.9987 0.0000 -0.0513
vn -0.0000 -1.0000 -0.0000
vn -0.0000 -0.9998 -0.0196
vn -0.0000 -0.9996 -0.0298
vn -1.0000 0.0000 0.0000
vn -0.9994 0.0000 -0.0339
vn -0.9987 0.0000 -0.0513
vn 0.0024 0.9988 -0.0479
vn -0.0000 0.9997 -0.0244
vn -0.0000 0.9998 -0.0196
vn -0.0000 0.9996 -0.0298
vn 0.0000 1.0000 0.0000
vn -0.0016 0.9997 -0.0256
vn -0.0000 0.9988 -0.0496
vn 0.9960 0.0000 -0.0898
vn -0.0000 -0.9981 -0.0616
vn -0.0000 -0.9988 -0.0492
vn -0.9945 0.0000 -0.1044
vn -0.9960 0.0000 -0.0898
vn -0.0000 0.9988 -0.0492
vn -0.0000 0.9981 -0.0616
vn 0.9945 0.0000 -0.1044
vn 0.9972 0.0000 -0.0742
vn -0.0000 -0.9994 -0.0353
vn -0.9972 0.0000 -0.0742
vn -0.0000 0.9994 -0.0353
vn -0.0184 0.9913 -0.1300
vn -0.0056 0.9940 -0.1096
vn -0.3803 0.8868 -0.2626
vn -0.0675 0.9749 -0.2122
vn -0.0000 0.9803 -0.1973
vn 0.0319 -0.9814 0.1893
vn 0.0000 -0.9820 0.1888
vn -0.0007 -0.9808 0.1948
vn 0.0564 -0.9669 0.2490
vn 0.0000 -0.9533 0.3019
vn 0.1821 -0.9677 0.1741
vn 0.0195 0.9909 -0.1335
vn 0.0056 0.9889 -0.1484
vn 0.0565 0.9668 -0.2493
vn 0.1819 0.9678 -0.1742
vn -0.0000 0.9533 -0.3019
vn -0.0208 -0.9846 0.1736
vn 0.0000 -0.9893 0.1460
vn -0.4311 -0.8647 0.2579
vn -0.0677 -0.9753 0.2103
vn 0.0000 -0.9803 0.1973
vn -0.0000 -0.9803 0.1973
vn -0.4390 -0.7007 0.5624
vn 0.4285 -0.6953 0.5770
vn 0.7005 -0.0138 0.7135
vn 0.7070 -0.0142 0.7070
vn 0.3663 -0.0011 0.9305
vn 0.3508 -0.0000 0.9364
vn 0.7071 0.0000 0.7071
vn 0.0018 -0.7070 0.7072
vn 0.0017 -0.7071 0.7071
vn 0.0039 -0.7054 0.7088
vn 0.0039 -0.7051 0.7091
vn 0.7071 -0.0000 0.7071
vn 0.0000 0.7071 0.7071
vn 0.0000 -0.7071 0.7071
vn -0.3613 -0.0350 0.9318
vn -0.3190 -0.0385 0.9470
vn -0.7006 -0.0008 0.7136
vn -0.7071 0.0000 0.7071
vn -0.7071 -0.0000 0.7071
vn 0.0000 -0.9865 0.1636
vn -0.0000 0.9865 -0.1636
vn -0.0000 -0.1913 -0.9815
vn 0.0000 0.1913 0.9815
vn 0.0000 -0.5820 0.8132
vn 0.4755 -0.8679 0.1439
vn -0.0000 -0.8290 -0.5593
vn -0.4755 -0.8679 0.1439
# 92 vertex normals

vt 0.4525 0.3420 0.0000
vt 0.5162 0.3420 0.0000
vt 0.5162 0.3584 0.0000
vt 0.4525 0.3584 0.0000
vt 0.6177 0.2580 0.0000
vt 0.6177 0.2011 0.0000
vt 0.7286 0.2011 0.0000
vt 0.7286 0.2580 0.0000
vt 0.7923 0.2011 0.0000
vt 0.7923 0.2580 0.0000
vt 0.8492 0.2011 0.0000
vt 0.8492 0.2580 0.0000
vt 0.6081 0.2011 0.0000
vt 0.6081 0.1374 0.0000
vt 0.6649 0.1374 0.0000
vt 0.7286 0.1374 0.0000
vt 0.7923 0.1374 0.0000
vt 0.8492 0.1374 0.0000
vt 0.6081 0.0737 0.0000
vt 0.6177 0.0737 0.0000
vt 0.7286 0.0737 0.0000
vt 0.7923 0.0737 0.0000
vt 0.8492 0.0737 0.0000
vt 0.0928 0.7927 0.0000
vt 0.0928 0.7290 0.0000
vt 0.1092 0.7290 0.0000
vt 0.1092 0.7927 0.0000
vt 0.6177 0.0168 0.0000
vt 0.7286 0.0168 0.0000
vt 0.7923 0.0168 0.0000
vt 0.8492 0.0168 0.0000
vt 0.4313 0.3938 0.0000
vt 0.4313 0.4374 0.0000
vt 0.4020 0.4374 0.0000
vt 0.4020 0.3938 0.0000
vt 0.3123 0.7291 0.0000
vt 0.3123 0.6654 0.0000
vt 0.3760 0.6654 0.0000
vt 0.3760 0.7291 0.0000
vt 0.3123 0.6017 0.0000
vt 0.3760 0.6017 0.0000
vt 0.4313 0.3413 0.0000
vt 0.4313 0.3849 0.0000
vt 0.4020 0.3849 0.0000
vt 0.4020 0.3413 0.0000
vt 0.3760 0.7928 0.0000
vt 0.4397 0.7291 0.0000
vt 0.4397 0.7928 0.0000
vt 0.4397 0.6654 0.0000
vt 0.4397 0.6017 0.0000
vt 0.3760 0.5380 0.0000
vt 0.4397 0.5380 0.0000
vt 0.5034 0.7291 0.0000
vt 0.5034 0.7928 0.0000
vt 0.5034 0.6654 0.0000
vt 0.5034 0.6017 0.0000
vt 0.5034 0.5380 0.0000
vt 0.4961 0.4348 0.0000
vt 0.4525 0.4348 0.0000
vt 0.4525 0.4055 0.0000
vt 0.4961 0.4055 0.0000
vt 0.5671 0.6654 0.0000
vt 0.5671 0.7291 0.0000
vt 0.5671 0.6017 0.0000
vt 0.4961 0.3966 0.0000
vt 0.4525 0.3966 0.0000
vt 0.4525 0.3673 0.0000
vt 0.4961 0.3673 0.0000
vt 0.2631 0.2154 0.0000
vt 0.2400 0.2167 0.0000
vt 0.2012 0.1958 0.0000
vt 0.2645 0.2032 0.0000
vt 0.1365 0.2004 0.0000
vt 0.1379 0.1885 0.0000
vt 0.0733 0.1930 0.0000
vt 0.0747 0.1811 0.0000
vt 0.0100 0.1856 0.0000
vt 0.0114 0.1737 0.0000
vt 0.5742 0.2564 0.0000
vt 0.5745 0.3201 0.0000
vt 0.5622 0.3201 0.0000
vt 0.5622 0.2564 0.0000
vt 0.5745 0.3838 0.0000
vt 0.5622 0.3838 0.0000
vt 0.5745 0.4475 0.0000
vt 0.5622 0.4475 0.0000
vt 0.5745 0.5112 0.0000
vt 0.5622 0.5112 0.0000
vt 0.5813 0.1847 0.0000
vt 0.5184 0.1944 0.0000
vt 0.5165 0.1823 0.0000
vt 0.5795 0.1725 0.0000
vt 0.4554 0.2041 0.0000
vt 0.4536 0.1920 0.0000
vt 0.3526 0.2243 0.0000
vt 0.3906 0.2017 0.0000
vt 0.3295 0.2236 0.0000
vt 0.3276 0.2114 0.0000
vt 0.0100 0.8117 0.0000
vt 0.0737 0.8117 0.0000
vt 0.0737 0.8240 0.0000
vt 0.0100 0.8240 0.0000
vt 0.1374 0.8117 0.0000
vt 0.1374 0.8240 0.0000
vt 0.2011 0.8117 0.0000
vt 0.2011 0.8240 0.0000
vt 0.2648 0.8117 0.0000
vt 0.2648 0.8240 0.0000
vt 0.2293 0.0392 0.0000
vt 0.2731 0.0443 0.0000
vt 0.4664 0.8106 0.0000
vt 0.4497 0.9694 0.0000
vt 0.4194 0.9694 0.0000
vt 0.4027 0.8106 0.0000
vt 0.2286 0.3572 0.0000
vt 0.0699 0.3474 0.0000
vt 0.0699 0.3033 0.0000
vt 0.2286 0.2935 0.0000
vt 0.2481 0.9828 0.0000
vt 0.2178 0.9828 0.0000
vt 0.9465 0.0100 0.0000
vt 0.9298 0.1688 0.0000
vt 0.8994 0.1688 0.0000
vt 0.8828 0.0100 0.0000
vt 0.0395 0.0172 0.0000
vt 0.0833 0.0223 0.0000
vt 0.4035 0.3035 0.0000
vt 0.4035 0.2731 0.0000
vt 0.2286 0.5024 0.0000
vt 0.0699 0.4926 0.0000
vt 0.0699 0.4485 0.0000
vt 0.2286 0.4387 0.0000
vt 0.2286 0.4298 0.0000
vt 0.0699 0.4200 0.0000
vt 0.0699 0.3759 0.0000
vt 0.2286 0.3661 0.0000
vt 0.9275 0.4843 0.0000
vt 0.9108 0.6430 0.0000
vt 0.8805 0.6430 0.0000
vt 0.8638 0.4843 0.0000
vt 0.3131 0.0530 0.0000
vt 0.3567 0.0463 0.0000
vt 0.0570 0.9828 0.0000
vt 0.0267 0.9828 0.0000
vt 0.3760 0.8106 0.0000
vt 0.3662 0.9694 0.0000
vt 0.3221 0.9694 0.0000
vt 0.3123 0.8106 0.0000
vt 0.4035 0.4946 0.0000
vt 0.4035 0.4642 0.0000
vt 0.5020 0.0238 0.0000
vt 0.5455 0.0171 0.0000
vt 0.9275 0.2915 0.0000
vt 0.9108 0.4503 0.0000
vt 0.8805 0.4503 0.0000
vt 0.8638 0.2915 0.0000
vt 0.2304 0.0321 0.0000
vt 0.2737 0.0371 0.0000
vt 0.4492 0.9766 0.0000
vt 0.4199 0.9766 0.0000
vt 0.0626 0.3472 0.0000
vt 0.0626 0.3036 0.0000
vt 0.2476 0.9900 0.0000
vt 0.2183 0.9900 0.0000
vt 0.9293 0.1760 0.0000
vt 0.9000 0.1760 0.0000
vt 0.0406 0.0100 0.0000
vt 0.0838 0.0150 0.0000
vt 0.3962 0.3029 0.0000
vt 0.3962 0.2737 0.0000
vt 0.0626 0.4924 0.0000
vt 0.0626 0.4488 0.0000
vt 0.0626 0.4198 0.0000
vt 0.0626 0.3762 0.0000
vt 0.9103 0.6503 0.0000
vt 0.8810 0.6503 0.0000
vt 0.3123 0.0458 0.0000
vt 0.3553 0.0392 0.0000
vt 0.0565 0.9900 0.0000
vt 0.0272 0.9900 0.0000
vt 0.3659 0.9766 0.0000
vt 0.3223 0.9766 0.0000
vt 0.3962 0.4940 0.0000
vt 0.3962 0.4648 0.0000
vt 0.5011 0.0166 0.0000
vt 0.5442 0.0100 0.0000
vt 0.9103 0.4575 0.0000
vt 0.8810 0.4575 0.0000
vt 0.2648 0.7982 0.0000
vt 0.2011 0.7981 0.0000
vt 0.2011 0.6168 0.0000
vt 0.2011 0.5292 0.0000
vt 0.2648 0.5292 0.0000
vt 0.8833 0.6827 0.0000
vt 0.8928 0.6809 0.0000
vt 0.8941 0.8713 0.0000
vt 0.8779 0.8738 0.0000
vt 0.8766 0.6905 0.0000
vt 0.8371 0.5675 0.0000
vt 0.7802 0.5675 0.0000
vt 0.7734 0.5606 0.0000
vt 0.7734 0.2915 0.0000
vt 0.8371 0.2915 0.0000
vt 0.8371 0.3791 0.0000
vt 0.2465 0.2271 0.0000
vt 0.2628 0.2290 0.0000
vt 0.2855 0.5024 0.0000
vt 0.2692 0.5005 0.0000
vt 0.9387 0.9614 0.0000
vt 0.9292 0.9595 0.0000
vt 0.9229 0.9514 0.0000
vt 0.9474 0.7715 0.0000
vt 0.9313 0.7683 0.0000
vt 0.0737 0.7981 0.0000
vt 0.0100 0.7982 0.0000
vt 0.0100 0.5292 0.0000
vt 0.0737 0.6168 0.0000
vt 0.0737 0.5292 0.0000
vt 0.3303 0.2371 0.0000
vt 0.3465 0.2346 0.0000
vt 0.3340 0.5087 0.0000
vt 0.3178 0.5112 0.0000
vt 0.8303 0.8700 0.0000
vt 0.7734 0.8700 0.0000
vt 0.7734 0.6819 0.0000
vt 0.7734 0.5943 0.0000
vt 0.8371 0.5943 0.0000
vt 0.8371 0.8633 0.0000
vt 0.8800 0.9622 0.0000
vt 0.8638 0.9647 0.0000
vt 0.9208 0.6770 0.0000
vt 0.9369 0.6801 0.0000
vt 0.5456 0.4355 0.0000
vt 0.5359 0.4374 0.0000
vt 0.5361 0.4278 0.0000
vt 0.8755 0.6770 0.0000
vt 0.9213 0.9649 0.0000
vt 0.5419 0.4113 0.0000
vt 0.5479 0.4189 0.0000
vt 0.5359 0.4188 0.0000
vt 0.7286 0.2648 0.0000
vt 0.6240 0.2648 0.0000
vt 0.0725 0.1998 0.0000
vt 0.1358 0.2071 0.0000
vt 0.8560 0.2011 0.0000
vt 0.8560 0.2648 0.0000
vt 0.0160 0.1932 0.0000
vt 0.2011 0.8049 0.0000
vt 0.1374 0.8049 0.0000
vt 0.5813 0.3838 0.0000
vt 0.5813 0.3201 0.0000
vt 0.0737 0.8049 0.0000
vt 0.5813 0.4475 0.0000
vt 0.6240 0.0100 0.0000
vt 0.7286 0.0100 0.0000
vt 0.4565 0.2109 0.0000
vt 0.5194 0.2011 0.0000
vt 0.5756 0.1925 0.0000
vt 0.5813 0.5044 0.0000
vt 0.6105 0.5551 0.0000
vt 0.6105 0.4933 0.0000
vt 0.6444 0.4933 0.0000
vt 0.6444 0.5551 0.0000
vt 0.6813 0.4933 0.0000
vt 0.6813 0.5551 0.0000
vt 0.7181 0.4933 0.0000
vt 0.7181 0.5551 0.0000
vt 0.7520 0.4933 0.0000
vt 0.7520 0.5551 0.0000
vt 0.6105 0.4260 0.0000
vt 0.6444 0.4260 0.0000
vt 0.6813 0.4260 0.0000
vt 0.7181 0.4260 0.0000
vt 0.7520 0.4260 0.0000
vt 0.6105 0.3588 0.0000
vt 0.6444 0.3588 0.0000
vt 0.6813 0.3588 0.0000
vt 0.7181 0.3588 0.0000
vt 0.7520 0.3588 0.0000
vt 0.6105 0.2969 0.0000
vt 0.6444 0.2969 0.0000
vt 0.6813 0.2969 0.0000
vt 0.7181 0.2969 0.0000
vt 0.7520 0.2969 0.0000
vt 0.6081 0.5783 0.0000
vt 0.6449 0.5783 0.0000
vt 0.6449 0.6456 0.0000
vt 0.6081 0.6456 0.0000
vt 0.6818 0.5783 0.0000
vt 0.6818 0.6456 0.0000
vt 0.7187 0.5783 0.0000
vt 0.7187 0.6456 0.0000
vt 0.7556 0.5783 0.0000
vt 0.7556 0.6456 0.0000
vt 0.6449 0.7128 0.0000
vt 0.6081 0.7128 0.0000
vt 0.6818 0.7128 0.0000
vt 0.7187 0.7128 0.0000
vt 0.7556 0.7128 0.0000
vt 0.6449 0.7800 0.0000
vt 0.6081 0.7800 0.0000
vt 0.6818 0.7800 0.0000
vt 0.7187 0.7800 0.0000
vt 0.7556 0.7800 0.0000
vt 0.6449 0.8473 0.0000
vt 0.6081 0.8473 0.0000
vt 0.6818 0.8473 0.0000
vt 0.7187 0.8473 0.0000
vt 0.7556 0.8473 0.0000
vt 0.1800 0.9900 0.0000
vt 0.1810 0.9526 0.0000
vt 0.1878 0.9526 0.0000
vt 0.1868 0.9900 0.0000
vt 0.1821 0.9153 0.0000
vt 0.1889 0.9153 0.0000
vt 0.1831 0.8779 0.0000
vt 0.1899 0.8779 0.0000
vt 0.1842 0.8405 0.0000
vt 0.1910 0.8405 0.0000
vt 0.9718 0.6770 0.0000
vt 0.9718 0.7442 0.0000
vt 0.9652 0.7442 0.0000
vt 0.9652 0.6770 0.0000
vt 0.9718 0.8115 0.0000
vt 0.9652 0.8115 0.0000
vt 0.9718 0.8787 0.0000
vt 0.9652 0.8787 0.0000
vt 0.9718 0.9460 0.0000
vt 0.9652 0.9460 0.0000
vt 0.1910 0.6432 0.0000
vt 0.1905 0.6806 0.0000
vt 0.1838 0.6803 0.0000
vt 0.1842 0.6429 0.0000
vt 0.1901 0.7180 0.0000
vt 0.1834 0.7177 0.0000
vt 0.1897 0.7553 0.0000
vt 0.1829 0.7551 0.0000
vt 0.1893 0.7927 0.0000
vt 0.1825 0.7924 0.0000
vt 0.3839 0.2423 0.0000
vt 0.3839 0.3095 0.0000
vt 0.3773 0.3095 0.0000
vt 0.3773 0.2423 0.0000
vt 0.3839 0.3768 0.0000
vt 0.3773 0.3768 0.0000
vt 0.3839 0.4440 0.0000
vt 0.3773 0.4440 0.0000
vt 0.3839 0.5112 0.0000
vt 0.3773 0.5112 0.0000
vt 0.3873 0.5058 0.0000
vt 0.3873 0.4440 0.0000
vt 0.6449 0.5605 0.0000
vt 0.6081 0.5605 0.0000
vt 0.6818 0.5605 0.0000
vt 0.7187 0.5605 0.0000
vt 0.7556 0.4933 0.0000
vt 0.7556 0.5605 0.0000
vt 0.3873 0.3768 0.0000
vt 0.7556 0.4260 0.0000
vt 0.3873 0.3095 0.0000
vt 0.7556 0.3588 0.0000
vt 0.3873 0.2477 0.0000
vt 0.6081 0.2915 0.0000
vt 0.6449 0.2915 0.0000
vt 0.6818 0.2915 0.0000
vt 0.7187 0.2915 0.0000
vt 0.7556 0.2915 0.0000
# 367 texture coords

g Box001
usemtl 09___Default
s 1
f 1/1/1 2/2/1 3/3/1 4/4/1 
f 5/5/1 6/6/2 7/7/3 8/8/4 
f 8/8/4 7/7/3 9/9/5 10/10/6 
f 10/10/6 9/9/5 11/11/7 12/12/8 
f 13/13/9 14/14/1 15/15/10 6/6/2 
f 6/6/2 15/15/10 16/16/11 7/7/3 
f 7/7/3 16/16/11 17/17/12 9/9/5 
f 9/9/5 17/17/12 18/18/1 11/11/7 
f 14/14/1 19/19/1 20/20/1 15/15/10 
f 15/15/10 20/20/1 21/21/13 16/16/11 
f 16/16/11 21/21/13 22/22/13 17/17/12 
f 17/17/12 22/22/13 23/23/1 18/18/1 
f 24/24/1 25/25/1 26/26/1 27/27/1 
f 20/20/1 28/28/1 29/29/13 21/21/13 
f 21/21/13 29/29/13 30/30/13 22/22/13 
f 22/22/13 30/30/13 31/31/1 23/23/1 
f 32/32/14 33/33/14 34/34/14 35/35/14 
f 36/36/14 37/37/15 38/38/15 39/39/14 
f 37/37/15 40/40/15 41/41/15 38/38/15 
f 42/42/14 43/43/14 44/44/14 45/45/14 
f 46/46/14 39/39/14 47/47/14 48/48/14 
f 39/39/14 38/38/15 49/49/15 47/47/14 
f 38/38/15 41/41/15 50/50/15 49/49/15 
f 41/41/15 51/51/14 52/52/14 50/50/15 
f 48/48/14 47/47/14 53/53/14 54/54/14 
f 47/47/14 49/49/15 55/55/15 53/53/14 
f 49/49/15 50/50/15 56/56/15 55/55/15 
f 50/50/15 52/52/14 57/57/14 56/56/15 
f 58/58/14 59/59/14 60/60/14 61/61/14 
f 53/53/14 55/55/15 62/62/15 63/63/14 
f 55/55/15 56/56/15 64/64/15 62/62/15 
f 65/65/14 66/66/14 67/67/14 68/68/14 
s 2
f 69/69/16 70/70/16 36/71/17 71/72/18 
f 70/70/16 72/73/16 37/74/16 36/71/17 
f 72/73/16 73/75/16 40/76/17 37/74/16 
f 73/75/16 74/77/16 75/78/18 40/76/17 
s 4
f 74/79/19 76/80/19 51/81/20 75/82/21 
f 76/80/19 77/83/19 52/84/19 51/81/20 
f 77/83/19 78/85/19 57/86/20 52/84/19 
f 78/85/19 79/87/19 80/88/21 57/86/20 
s 2
f 79/89/22 81/90/22 64/91/23 80/92/24 
f 81/90/22 82/93/22 62/94/22 64/91/23 
f 82/93/22 83/95/22 63/96/23 62/94/22 
f 83/95/22 84/97/22 85/98/24 63/96/23 
s 4
f 84/99/25 86/100/26 54/101/27 85/102/28 
f 86/100/26 87/103/29 48/104/29 54/101/27 
f 87/103/29 88/105/30 46/106/27 48/104/29 
f 88/105/30 69/107/31 71/108/28 46/106/27 
s 2
f 36/71/17 89/109/32 90/110/32 71/72/18 
s 4
f 39/111/33 91/112/34 89/113/34 36/114/33 
s 2
f 46/115/35 92/116/36 91/117/36 39/118/35 
s 4
f 71/108/28 90/119/37 92/120/37 46/106/27 
f 40/121/38 93/122/37 94/123/37 41/124/38 
s 2
f 75/78/18 95/125/32 93/126/32 40/76/17 
s 4
f 51/81/20 96/127/34 95/128/34 75/82/21 
s 2
f 41/129/35 94/130/36 96/131/36 51/132/35 
f 53/133/39 97/134/32 98/135/32 54/136/39 
s 4
f 63/137/33 99/138/34 97/139/34 53/140/33 
s 2
f 85/98/24 100/141/36 99/142/36 63/96/23 
s 4
f 54/101/27 98/143/37 100/144/37 85/102/28 
s 2
f 57/145/39 101/146/32 102/147/32 56/148/39 
s 4
f 80/88/21 103/149/34 101/150/34 57/86/20 
s 2
f 64/91/23 104/151/36 103/152/36 80/92/24 
s 4
f 56/153/38 102/154/37 104/155/37 64/156/38 
s 2
f 33/157/40 32/158/40 90/110/32 89/109/32 
s 4
f 34/159/41 33/160/41 89/113/34 91/112/34 
s 2
f 35/161/42 34/162/42 91/117/36 92/116/36 
s 4
f 32/163/43 35/164/43 92/120/37 90/119/37 
f 42/165/43 45/166/43 94/123/37 93/122/37 
s 2
f 43/167/40 42/168/40 93/126/32 95/125/32 
s 4
f 44/169/41 43/170/41 95/128/34 96/127/34 
s 2
f 45/171/42 44/172/42 96/131/36 94/130/36 
f 59/173/40 58/174/40 98/135/32 97/134/32 
s 4
f 60/175/41 59/176/41 97/139/34 99/138/34 
s 2
f 61/177/42 60/178/42 99/142/36 100/141/36 
s 4
f 58/179/43 61/180/43 100/144/37 98/143/37 
s 2
f 66/181/40 65/182/40 102/147/32 101/146/32 
s 4
f 67/183/41 66/184/41 101/150/34 103/149/34 
s 2
f 68/185/42 67/186/42 103/152/36 104/151/36 
s 4
f 65/187/43 68/188/43 104/155/37 102/154/37 
f 105/189/44 106/190/45 107/191/46 2/192/47 
f 105/189/44 2/192/47 1/193/48 
s 2
f 13/194/22 6/195/22 108/196/22 107/197/22 
f 106/198/22 13/194/22 107/197/22 
s 4
f 6/199/49 5/200/50 109/201/51 4/202/52 
f 4/202/52 3/203/53 108/204/54 6/199/49 
s 2
f 109/205/16 105/206/16 1/207/16 4/208/16 
f 20/209/16 19/210/16 110/211/16 111/212/16 
f 110/211/16 112/213/16 111/212/16 
s 4
f 110/214/55 113/215/56 25/216/57 112/217/58 
f 25/216/57 24/218/59 112/217/58 
s 2
f 113/219/22 114/220/22 26/221/22 25/222/22 
s 4
f 28/223/60 20/224/61 111/225/62 27/226/63 
f 28/223/60 27/226/63 26/227/64 114/228/65 
s 2
f 3/229/22 2/230/22 107/197/22 108/196/22 
f 112/213/16 24/231/16 27/232/16 111/212/16 
s 8
f 109/233/66 5/234/66 70/235/66 
s 2
f 88/236/22 13/194/22 106/198/22 
f 86/237/16 110/211/16 19/210/16 
s 8
f 28/238/67 114/239/67 83/240/67 
s 4
f 105/189/44 69/107/31 88/105/30 106/190/45 
s 2
f 109/205/16 70/70/16 69/69/16 105/206/16 
s 16
f 8/8/68 72/241/69 70/242/70 5/5/71 
f 10/243/72 73/75/72 72/73/69 8/244/68 
s 8
f 11/11/73 76/245/74 74/246/75 12/12/76 
s 16
f 12/247/77 74/77/77 73/75/72 10/243/72 
s 8
f 13/248/78 88/105/78 87/103/78 14/249/78 
f 18/250/79 77/83/79 76/80/74 11/251/73 
f 14/249/78 87/103/78 86/100/78 19/252/78 
f 23/253/79 78/85/79 77/83/79 18/250/79 
s 4
f 110/214/55 86/100/26 84/99/25 113/215/56 
s 2
f 113/219/22 84/97/22 83/95/22 114/220/22 
s 16
f 28/28/80 83/254/81 82/255/82 29/29/83 
f 29/256/83 82/93/82 81/90/83 30/257/83 
f 30/257/83 81/90/83 79/89/84 31/258/84 
s 8
f 31/259/79 79/87/79 78/85/79 23/253/79 
s 1
f 115/260/85 116/261/85 117/262/85 118/263/85 
f 118/263/85 117/262/85 119/264/85 120/265/85 
f 120/265/85 119/264/85 121/266/85 122/267/85 
f 122/267/85 121/266/85 123/268/85 124/269/85 
f 116/261/85 125/270/85 126/271/85 117/262/85 
f 117/262/85 126/271/85 127/272/85 119/264/85 
f 119/264/85 127/272/85 128/273/85 121/266/85 
f 121/266/85 128/273/85 129/274/85 123/268/85 
f 125/270/85 130/275/85 131/276/85 126/271/85 
f 126/271/85 131/276/85 132/277/85 127/272/85 
f 127/272/85 132/277/85 133/278/85 128/273/85 
f 128/273/85 133/278/85 134/279/85 129/274/85 
f 130/275/85 135/280/85 136/281/85 131/276/85 
f 131/276/85 136/281/85 137/282/85 132/277/85 
f 132/277/85 137/282/85 138/283/85 133/278/85 
f 133/278/85 138/283/85 139/284/85 134/279/85 
f 140/285/86 141/286/86 142/287/86 143/288/86 
f 141/286/86 144/289/86 145/290/86 142/287/86 
f 144/289/86 146/291/86 147/292/86 145/290/86 
f 146/291/86 148/293/86 149/294/86 147/292/86 
f 143/288/86 142/287/86 150/295/86 151/296/86 
f 142/287/86 145/290/86 152/297/86 150/295/86 
f 145/290/86 147/292/86 153/298/86 152/297/86 
f 147/292/86 149/294/86 154/299/86 153/298/86 
f 151/296/86 150/295/86 155/300/86 156/301/86 
f 150/295/86 152/297/86 157/302/86 155/300/86 
f 152/297/86 153/298/86 158/303/86 157/302/86 
f 153/298/86 154/299/86 159/304/86 158/303/86 
f 156/301/86 155/300/86 160/305/86 161/306/86 
f 155/300/86 157/302/86 162/307/86 160/305/86 
f 157/302/86 158/303/86 163/308/86 162/307/86 
f 158/303/86 159/304/86 164/309/86 163/308/86 
s 2
f 165/310/16 166/311/16 141/312/16 140/313/16 
f 166/311/16 167/314/16 144/315/16 141/312/16 
f 167/314/16 168/316/16 146/317/16 144/315/16 
f 168/316/16 169/318/16 148/319/16 146/317/16 
s 4
f 169/320/87 170/321/87 149/322/87 148/323/87 
f 170/321/87 171/324/87 154/325/87 149/322/87 
f 171/324/87 172/326/87 159/327/87 154/325/87 
f 172/326/87 173/328/87 164/329/87 159/327/87 
s 2
f 173/330/22 174/331/22 163/332/22 164/333/22 
f 174/331/22 175/334/22 162/335/22 163/332/22 
f 175/334/22 176/336/22 160/337/22 162/335/22 
f 176/336/22 177/338/22 161/339/22 160/337/22 
s 4
f 177/340/88 178/341/88 156/342/88 161/343/88 
f 178/341/88 179/344/88 151/345/88 156/342/88 
f 179/344/88 180/346/88 143/347/88 151/345/88 
f 180/346/88 165/348/88 140/349/88 143/347/88 
s 8
f 115/350/89 165/348/89 180/346/89 116/351/89 
s 16
f 118/263/90 166/352/90 165/353/90 115/260/90 
f 120/265/90 167/354/90 166/352/90 118/263/90 
f 122/267/90 168/355/90 167/354/90 120/265/90 
s 8
f 123/268/91 170/356/91 169/357/91 124/269/91 
s 16
f 124/269/90 169/357/90 168/355/90 122/267/90 
s 8
f 116/351/89 180/346/89 179/344/89 125/358/89 
f 129/274/91 171/359/91 170/356/91 123/268/91 
f 125/358/89 179/344/89 178/341/89 130/360/89 
f 134/279/91 172/361/91 171/359/91 129/274/91 
f 130/360/89 178/341/89 177/340/89 135/362/89 
s 16
f 135/280/92 177/363/92 176/364/92 136/281/92 
f 136/281/92 176/364/92 175/365/92 137/282/92 
f 137/282/92 175/365/92 174/366/92 138/283/92 
f 138/283/92 174/366/92 173/367/92 139/284/92 
s 8
f 139/284/91 173/367/91 172/361/91 134/279/91 
# 172 polygons - 8 triangles

