# 3ds Max Wavefront OBJ Exporter v0.97b - (c)2007 guruware
# File Created: 04.07.2015 11:26:45

mtllib chalk.mtl

#
# object Cylinder001
#

v  2.6802 0.0000 48.7125
v  1.8565 -2.5450 48.7846
v  0.8960 -2.5450 37.8061
v  1.7197 0.0000 37.7341
v  -0.3002 -4.1178 48.9733
v  -1.2607 -4.1178 37.9948
v  -2.9659 -4.1178 49.2065
v  -3.9264 -4.1178 38.2280
v  -5.1226 -2.5450 49.3952
v  -6.0831 -2.5450 38.4167
v  -5.9463 0.0000 49.4673
v  -6.9068 0.0000 38.4888
v  -5.1226 2.5450 49.3952
v  -6.0831 2.5450 38.4167
v  -2.9659 4.1178 49.2065
v  -3.9264 4.1178 38.2280
v  -0.3002 4.1178 48.9733
v  -1.2607 4.1178 37.9948
v  1.8565 2.5450 48.7846
v  0.8960 2.5450 37.8061
v  -0.0645 -2.5450 26.8277
v  0.7592 0.0000 26.7556
v  -2.2212 -4.1178 27.0164
v  -4.8869 -4.1178 27.2496
v  -7.0436 -2.5450 27.4383
v  -7.8673 0.0000 27.5103
v  -7.0436 2.5450 27.4383
v  -4.8869 4.1178 27.2496
v  -2.2212 4.1178 27.0164
v  -0.0645 2.5450 26.8277
v  -1.0250 -2.5450 15.8492
v  -0.2012 0.0000 15.7771
v  -3.1816 -4.1178 16.0379
v  -5.8474 -4.1178 16.2711
v  -8.0040 -2.5450 16.4598
v  -8.8278 0.0000 16.5319
v  -8.0040 2.5450 16.4598
v  -5.8474 4.1178 16.2711
v  -3.1816 4.1178 16.0379
v  -1.0250 2.5450 15.8492
v  0.8964 4.1178 62.6506
v  -1.7693 4.1178 62.8838
v  -3.9260 2.5450 63.0725
v  -4.7497 0.0000 63.1446
v  -3.9260 -2.5450 63.0725
v  -1.7693 -4.1178 62.8838
v  0.8964 -4.1178 62.6506
v  3.0531 -2.5450 62.4619
v  3.8768 0.0000 62.3898
v  3.0531 2.5450 62.4619
v  -4.0572 -0.5860 7.9090
v  -4.7802 -0.9482 7.9722
v  -5.6738 -0.9482 8.0504
v  -6.3967 -0.5860 8.1136
v  -6.6728 0.0000 8.1378
v  -6.3967 0.5860 8.1136
v  -5.6738 0.9482 8.0504
v  -4.7802 0.9482 7.9722
v  -4.0572 0.5860 7.9090
v  -3.7811 0.0000 7.8848
# 60 vertices

vn 0.9962 -0.0000 -0.0872
vn 0.8059 -0.5878 -0.0705
vn 0.3078 -0.9511 -0.0269
vn -0.3078 -0.9511 0.0269
vn -0.8059 -0.5878 0.0705
vn -0.9962 0.0000 0.0872
vn -0.8059 0.5878 0.0705
vn -0.3078 0.9511 0.0269
vn 0.3078 0.9511 -0.0269
vn 0.8059 0.5878 -0.0705
vn 0.0872 -0.0000 0.9962
vn -0.0872 0.0000 -0.9962
vn 0.8672 -0.2921 -0.4032
vn 0.8317 -0.4074 -0.3772
vn 0.5170 -0.7568 -0.3999
vn 0.3928 -0.8467 -0.3589
vn -0.0315 -0.9324 -0.3602
vn -0.5803 -0.7609 -0.2903
vn -0.4457 -0.8320 -0.3302
vn -0.9261 -0.2930 -0.2377
vn -0.8768 -0.4023 -0.2633
vn -0.9241 0.2921 -0.2465
vn -0.8845 0.4074 -0.2271
vn -0.5786 0.7568 -0.3040
vn -0.4492 0.8467 -0.2852
vn -0.0315 0.9324 -0.3602
vn 0.5211 0.7609 -0.3867
vn 0.3816 0.8320 -0.4026
vn 0.8707 0.2930 -0.3949
vn 0.8178 0.4023 -0.4115
vn 0.9474 -0.3090 -0.0829
vn 0.9474 0.3090 -0.0829
vn 0.5855 0.8090 -0.0512
vn 0.0000 1.0000 0.0000
vn -0.5855 0.8090 0.0512
vn -0.9474 0.3090 0.0829
vn -0.9474 -0.3090 0.0829
vn -0.5855 -0.8090 0.0512
vn -0.0000 -1.0000 -0.0000
vn 0.5855 -0.8090 -0.0512
# 40 vertex normals

vt 0.4253 0.7477 0.0000
vt 0.3794 0.7477 0.0000
vt 0.3794 0.5492 0.0000
vt 0.4253 0.5492 0.0000
vt 0.2675 0.7477 0.0000
vt 0.2285 0.7477 0.0000
vt 0.2285 0.5492 0.0000
vt 0.2675 0.5492 0.0000
vt 0.1803 0.7477 0.0000
vt 0.1803 0.5492 0.0000
vt 0.1413 0.7477 0.0000
vt 0.1413 0.5492 0.0000
vt 0.3693 0.7477 0.0000
vt 0.3235 0.7477 0.0000
vt 0.3235 0.5492 0.0000
vt 0.3693 0.5492 0.0000
vt 0.2776 0.7477 0.0000
vt 0.2776 0.5492 0.0000
vt 0.1312 0.7477 0.0000
vt 0.0922 0.7477 0.0000
vt 0.0922 0.5492 0.0000
vt 0.1312 0.5492 0.0000
vt 0.0440 0.7477 0.0000
vt 0.0440 0.5492 0.0000
vt 0.0050 0.7477 0.0000
vt 0.0050 0.5492 0.0000
vt 0.4711 0.7477 0.0000
vt 0.4711 0.5492 0.0000
vt 0.3794 0.3507 0.0000
vt 0.4253 0.3507 0.0000
vt 0.2285 0.3507 0.0000
vt 0.2675 0.3507 0.0000
vt 0.1803 0.3507 0.0000
vt 0.1413 0.3507 0.0000
vt 0.3235 0.3507 0.0000
vt 0.3693 0.3507 0.0000
vt 0.2776 0.3507 0.0000
vt 0.0922 0.3507 0.0000
vt 0.1312 0.3507 0.0000
vt 0.0440 0.3507 0.0000
vt 0.0050 0.3507 0.0000
vt 0.4711 0.3507 0.0000
vt 0.3794 0.1522 0.0000
vt 0.4253 0.1522 0.0000
vt 0.2285 0.1522 0.0000
vt 0.2675 0.1522 0.0000
vt 0.1803 0.1522 0.0000
vt 0.1413 0.1522 0.0000
vt 0.3235 0.1522 0.0000
vt 0.3693 0.1522 0.0000
vt 0.2776 0.1522 0.0000
vt 0.0922 0.1522 0.0000
vt 0.1312 0.1522 0.0000
vt 0.0440 0.1522 0.0000
vt 0.0050 0.1522 0.0000
vt 0.4711 0.1522 0.0000
vt 0.4812 0.1071 0.0000
vt 0.4812 0.0589 0.0000
vt 0.5096 0.0199 0.0000
vt 0.5554 0.0050 0.0000
vt 0.6013 0.0199 0.0000
vt 0.6296 0.0589 0.0000
vt 0.6296 0.1071 0.0000
vt 0.6013 0.1461 0.0000
vt 0.5554 0.1610 0.0000
vt 0.5096 0.1461 0.0000
vt 0.4878 0.2150 0.0000
vt 0.4812 0.2019 0.0000
vt 0.4812 0.1858 0.0000
vt 0.4878 0.1727 0.0000
vt 0.4983 0.1677 0.0000
vt 0.5089 0.1727 0.0000
vt 0.5154 0.1858 0.0000
vt 0.5154 0.2019 0.0000
vt 0.5089 0.2150 0.0000
vt 0.4983 0.2200 0.0000
vt 0.4147 0.0050 0.0000
vt 0.4253 0.0050 0.0000
vt 0.2125 0.0050 0.0000
vt 0.2256 0.0050 0.0000
vt 0.1963 0.0050 0.0000
vt 0.1833 0.0050 0.0000
vt 0.3235 0.0050 0.0000
vt 0.3340 0.0050 0.0000
vt 0.3129 0.0050 0.0000
vt 0.0762 0.0050 0.0000
vt 0.0892 0.0050 0.0000
vt 0.0600 0.0050 0.0000
vt 0.0469 0.0050 0.0000
vt 0.4358 0.0050 0.0000
vt 0.4253 0.9950 0.0000
vt 0.3794 0.9950 0.0000
vt 0.4711 0.9950 0.0000
vt 0.0440 0.9950 0.0000
vt 0.0050 0.9950 0.0000
vt 0.0922 0.9950 0.0000
vt 0.1312 0.9950 0.0000
vt 0.3235 0.9950 0.0000
vt 0.2776 0.9950 0.0000
vt 0.3693 0.9950 0.0000
vt 0.1803 0.9950 0.0000
vt 0.1413 0.9950 0.0000
vt 0.2285 0.9950 0.0000
vt 0.2675 0.9950 0.0000
# 104 texture coords

g Cylinder001
usemtl 03___Default
s 8
f 1/1/1 2/2/2 3/3/2 
f 3/3/2 4/4/1 1/1/1 
f 2/5/2 5/6/3 6/7/3 
f 6/7/3 3/8/2 2/5/2 
f 5/6/3 7/9/4 8/10/4 
f 8/10/4 6/7/3 5/6/3 
f 7/9/4 9/11/5 10/12/5 
f 10/12/5 8/10/4 7/9/4 
f 9/13/5 11/14/6 12/15/6 
f 12/15/6 10/16/5 9/13/5 
f 11/14/6 13/17/7 14/18/7 
f 14/18/7 12/15/6 11/14/6 
f 13/19/7 15/20/8 16/21/8 
f 16/21/8 14/22/7 13/19/7 
f 15/20/8 17/23/9 18/24/9 
f 18/24/9 16/21/8 15/20/8 
f 17/23/9 19/25/10 20/26/10 
f 20/26/10 18/24/9 17/23/9 
f 19/27/10 1/1/1 4/4/1 
f 4/4/1 20/28/10 19/27/10 
f 4/4/1 3/3/2 21/29/2 
f 21/29/2 22/30/1 4/4/1 
f 3/8/2 6/7/3 23/31/3 
f 23/31/3 21/32/2 3/8/2 
f 6/7/3 8/10/4 24/33/4 
f 24/33/4 23/31/3 6/7/3 
f 8/10/4 10/12/5 25/34/5 
f 25/34/5 24/33/4 8/10/4 
f 10/16/5 12/15/6 26/35/6 
f 26/35/6 25/36/5 10/16/5 
f 12/15/6 14/18/7 27/37/7 
f 27/37/7 26/35/6 12/15/6 
f 14/22/7 16/21/8 28/38/8 
f 28/38/8 27/39/7 14/22/7 
f 16/21/8 18/24/9 29/40/9 
f 29/40/9 28/38/8 16/21/8 
f 18/24/9 20/26/10 30/41/10 
f 30/41/10 29/40/9 18/24/9 
f 20/28/10 4/4/1 22/30/1 
f 22/30/1 30/42/10 20/28/10 
f 22/30/1 21/29/2 31/43/2 
f 31/43/2 32/44/1 22/30/1 
f 21/32/2 23/31/3 33/45/3 
f 33/45/3 31/46/2 21/32/2 
f 23/31/3 24/33/4 34/47/4 
f 34/47/4 33/45/3 23/31/3 
f 24/33/4 25/34/5 35/48/5 
f 35/48/5 34/47/4 24/33/4 
f 25/36/5 26/35/6 36/49/6 
f 36/49/6 35/50/5 25/36/5 
f 26/35/6 27/37/7 37/51/7 
f 37/51/7 36/49/6 26/35/6 
f 27/39/7 28/38/8 38/52/8 
f 38/52/8 37/53/7 27/39/7 
f 28/38/8 29/40/9 39/54/9 
f 39/54/9 38/52/8 28/38/8 
f 29/40/9 30/41/10 40/55/10 
f 40/55/10 39/54/9 29/40/9 
f 30/42/10 22/30/1 32/44/1 
f 32/44/1 40/56/10 30/42/10 
s 1
f 41/57/11 42/58/11 43/59/11 
f 43/59/11 44/60/11 45/61/11 
f 45/61/11 46/62/11 47/63/11 
f 47/63/11 48/64/11 49/65/11 
f 45/61/11 47/63/11 49/65/11 
f 43/59/11 45/61/11 49/65/11 
f 41/57/11 43/59/11 49/65/11 
f 50/66/11 41/57/11 49/65/11 
f 51/67/12 52/68/12 53/69/12 
f 53/69/12 54/70/12 55/71/12 
f 55/71/12 56/72/12 57/73/12 
f 57/73/12 58/74/12 59/75/12 
f 55/71/12 57/73/12 59/75/12 
f 53/69/12 55/71/12 59/75/12 
f 51/67/12 53/69/12 59/75/12 
f 60/76/12 51/67/12 59/75/12 
s off
f 32/44/13 31/43/13 51/77/13 
f 51/77/14 60/78/14 32/44/14 
f 31/46/15 33/45/15 52/79/15 
f 52/79/16 51/80/16 31/46/16 
f 33/45/17 34/47/17 53/81/17 
f 53/81/17 52/79/17 33/45/17 
f 34/47/18 35/48/18 54/82/18 
f 54/82/19 53/81/19 34/47/19 
f 35/50/20 36/49/20 55/83/20 
f 55/83/21 54/84/21 35/50/21 
f 36/49/22 37/51/22 56/85/22 
f 56/85/23 55/83/23 36/49/23 
f 37/53/24 38/52/24 57/86/24 
f 57/86/25 56/87/25 37/53/25 
f 38/52/26 39/54/26 58/88/26 
f 58/88/26 57/86/26 38/52/26 
f 39/54/27 40/55/27 59/89/27 
f 59/89/28 58/88/28 39/54/28 
f 40/56/29 32/44/29 60/78/29 
f 60/78/30 59/90/30 40/56/30 
f 2/2/31 1/1/31 49/91/31 
f 49/91/31 48/92/31 2/2/31 
f 1/1/32 19/27/32 50/93/32 
f 50/93/32 49/91/32 1/1/32 
f 19/25/33 17/23/33 41/94/33 
f 41/94/33 50/95/33 19/25/33 
f 17/23/34 15/20/34 42/96/34 
f 42/96/34 41/94/34 17/23/34 
f 15/20/35 13/19/35 43/97/35 
f 43/97/35 42/96/35 15/20/35 
f 13/17/36 11/14/36 44/98/36 
f 44/98/36 43/99/36 13/17/36 
f 11/14/37 9/13/37 45/100/37 
f 45/100/37 44/98/37 11/14/37 
f 9/11/38 7/9/38 46/101/38 
f 46/101/38 45/102/38 9/11/38 
f 7/9/39 5/6/39 47/103/39 
f 47/103/39 46/101/39 7/9/39 
f 5/6/40 2/5/40 48/104/40 
f 48/104/40 47/103/40 5/6/40 
# 116 faces

