# 3ds Max Wavefront OBJ Exporter v0.97b - (c)2007 guruware
# File Created: 17.06.2015 21:42:45

mtllib table.mtl

#
# object Box001
#

v  -29.9524 17.4886 24.1403
v  -29.9524 11.2741 24.1403
v  -18.7524 11.2741 24.1403
v  -18.7524 17.4886 24.1403
v  -6.2508 11.2741 24.1403
v  -6.2508 17.4886 24.1403
v  6.2508 11.2741 24.1403
v  6.2508 17.4886 24.1403
v  18.7524 11.2741 24.1403
v  18.7524 17.4886 24.1403
v  29.9524 11.2741 24.1403
v  29.9524 17.4886 24.1403
v  -29.9524 3.7580 24.1403
v  -18.7524 3.7580 24.1403
v  -6.2508 3.7580 24.1403
v  6.2508 3.7580 24.1403
v  18.7524 3.7580 24.1403
v  29.9524 3.7580 24.1403
v  -29.9524 -3.7581 24.1403
v  -18.7524 -3.7581 24.1403
v  -6.2508 -3.7581 24.1403
v  6.2508 -3.7581 24.1403
v  18.7524 -3.7581 24.1403
v  29.9524 -3.7581 24.1403
v  -29.9524 -11.2742 24.1403
v  -18.7524 -11.2742 24.1403
v  -6.2508 -11.2742 24.1403
v  6.2508 -11.2742 24.1403
v  18.7524 -11.2742 24.1403
v  29.9524 -11.2742 24.1403
v  -29.9524 -17.4887 24.1403
v  -18.7524 -17.4887 24.1403
v  -6.2508 -17.4887 24.1403
v  6.2508 -17.4887 24.1403
v  18.7524 -17.4887 24.1403
v  29.9524 -17.4887 24.1403
v  -28.0892 16.8875 1.3222
v  -21.9172 16.8875 1.3222
v  -21.9172 13.1769 1.3222
v  -28.0892 13.1769 1.3222
v  -18.7524 18.7902 19.7058
v  -6.2508 18.7902 19.7058
v  -6.2508 11.2741 19.7058
v  -18.7524 11.2741 19.7058
v  6.2508 18.7902 19.7058
v  6.2508 11.2741 19.7058
v  18.7524 18.7902 19.7058
v  18.7524 11.2741 19.7058
v  21.9172 16.8875 1.3222
v  28.0892 16.8875 1.3222
v  28.0892 13.1769 1.3222
v  21.9172 13.1769 1.3222
v  -31.2540 11.2741 19.7058
v  -18.7524 3.7580 19.7058
v  -31.2540 3.7580 19.7058
v  -6.2508 3.7580 19.7058
v  6.2508 3.7580 19.7058
v  18.7524 3.7580 19.7058
v  31.2540 11.2741 19.7058
v  31.2540 3.7580 19.7058
v  -18.7524 -3.7581 19.7058
v  -31.2540 -3.7581 19.7058
v  -6.2508 -3.7581 19.7058
v  6.2508 -3.7581 19.7058
v  18.7524 -3.7581 19.7058
v  31.2540 -3.7581 19.7058
v  -18.7524 -11.2742 19.7058
v  -31.2540 -11.2742 19.7058
v  -6.2508 -11.2742 19.7058
v  6.2508 -11.2742 19.7058
v  18.7524 -11.2742 19.7058
v  31.2540 -11.2742 19.7058
v  -28.0892 -13.1769 1.3222
v  -21.9172 -13.1769 1.3222
v  -21.9172 -16.8875 1.3222
v  -28.0892 -16.8875 1.3222
v  -6.2508 -18.7903 19.7058
v  -18.7524 -18.7903 19.7058
v  6.2508 -18.7903 19.7058
v  18.7524 -18.7903 19.7058
v  21.9172 -13.1769 1.3222
v  28.0892 -13.1769 1.3222
v  28.0892 -16.8875 1.3222
v  21.9172 -16.8875 1.3222
v  -31.2540 18.7902 22.8387
v  -18.7524 18.7902 22.8387
v  -31.2540 18.7902 19.7058
v  -6.2508 18.7902 22.8387
v  6.2508 18.7902 22.8387
v  18.7524 18.7902 22.8387
v  31.2540 18.7902 22.8387
v  31.2540 18.7902 19.7058
v  31.2540 11.2741 22.8387
v  31.2540 3.7580 22.8387
v  31.2540 -3.7581 22.8387
v  31.2540 -11.2742 22.8387
v  31.2540 -18.7903 22.8387
v  31.2540 -18.7903 19.7058
v  18.7524 -18.7903 22.8387
v  6.2508 -18.7903 22.8387
v  -6.2508 -18.7903 22.8387
v  -18.7524 -18.7903 22.8387
v  -31.2540 -18.7903 22.8387
v  -31.2540 -18.7903 19.7058
v  -31.2540 -11.2742 22.8387
v  -31.2540 -3.7581 22.8387
v  -31.2540 3.7580 22.8387
v  -31.2540 11.2741 22.8387
v  -21.2441 17.2922 2.8744
v  -28.7623 17.2922 2.8744
v  -21.2441 12.7721 2.8744
v  -28.7623 12.7721 2.8744
v  21.2441 17.2922 2.8744
v  21.2441 12.7721 2.8744
v  28.7623 17.2922 2.8744
v  28.7623 12.7721 2.8744
v  -21.2441 -12.7722 2.8744
v  -28.7623 -12.7722 2.8744
v  -21.2441 -17.2922 2.8744
v  -28.7623 -17.2922 2.8744
v  28.7623 -12.7722 2.8744
v  21.2441 -12.7722 2.8744
v  28.7623 -17.2922 2.8744
v  21.2441 -17.2922 2.8744
v  -30.7952 18.3314 23.8318
v  -30.9455 18.4817 23.6815
v  -30.8762 11.2741 23.7508
v  -30.8645 11.2741 23.7625
v  -18.7524 18.4007 23.7625
v  -18.7524 18.4124 23.7508
v  -6.2508 18.4007 23.7625
v  -6.2508 18.4124 23.7508
v  6.2508 18.4007 23.7625
v  6.2508 18.4124 23.7508
v  18.7524 18.4007 23.7625
v  18.7524 18.4124 23.7508
v  30.8645 11.2741 23.7625
v  30.8762 11.2741 23.7508
v  30.9455 18.4817 23.6815
v  30.7952 18.3314 23.8318
v  -30.8762 3.7580 23.7508
v  -30.8645 3.7580 23.7625
v  30.8645 3.7580 23.7625
v  30.8762 3.7580 23.7508
v  -30.8762 -3.7581 23.7508
v  -30.8645 -3.7581 23.7625
v  30.8645 -3.7581 23.7625
v  30.8762 -3.7581 23.7508
v  -30.8762 -11.2742 23.7508
v  -30.8645 -11.2742 23.7625
v  30.8645 -11.2742 23.7625
v  30.8762 -11.2742 23.7508
v  -30.9455 -18.4818 23.6815
v  -30.7952 -18.3314 23.8318
v  -18.7524 -18.4125 23.7508
v  -18.7524 -18.4008 23.7625
v  -6.2508 -18.4125 23.7508
v  -6.2508 -18.4008 23.7625
v  6.2508 -18.4125 23.7508
v  6.2508 -18.4008 23.7625
v  18.7524 -18.4125 23.7508
v  18.7524 -18.4008 23.7625
v  30.9455 -18.4818 23.6815
v  30.7952 -18.3314 23.8318
# 164 vertices

vn -0.1352 0.1303 0.9822
vn -0.1951 0.0000 0.9808
vn 0.0000 0.0000 1.0000
vn 0.0008 0.1946 0.9809
vn 0.0000 0.1951 0.9808
vn 0.1943 -0.0012 0.9809
vn 0.1310 0.1340 0.9823
vn 0.1951 0.0000 0.9808
vn -0.1943 0.0012 0.9809
vn -0.1310 -0.1340 0.9823
vn 0.0000 -0.1951 0.9808
vn -0.0008 -0.1946 0.9809
vn 0.1352 -0.1303 0.9822
vn 0.0000 0.0000 -1.0000
vn -0.6900 0.6909 0.2158
vn 0.0000 0.9808 0.1951
vn 0.0000 0.9996 -0.0277
vn -0.7104 0.6992 -0.0803
vn 0.0000 1.0000 -0.0000
vn -0.0007 0.9809 0.1946
vn 0.6910 0.6897 0.2162
vn 0.7104 0.6992 -0.0803
vn 0.9808 0.0000 0.1951
vn 0.9989 0.0000 -0.0471
vn 1.0000 0.0000 -0.0000
vn 0.9809 0.0012 0.1943
vn 0.6900 -0.6909 0.2158
vn 0.7104 -0.6992 -0.0803
vn 0.0000 -0.9808 0.1951
vn 0.0000 -0.9996 -0.0277
vn 0.0000 -1.0000 -0.0000
vn 0.0007 -0.9809 0.1946
vn -0.6910 -0.6897 0.2162
vn -0.7104 -0.6992 -0.0803
vn -0.9808 0.0000 0.1951
vn -0.9989 0.0000 -0.0471
vn -1.0000 0.0000 -0.0000
vn -0.9809 -0.0012 0.1943
vn 0.0000 0.9878 -0.1556
vn -0.6792 0.6743 -0.2897
vn 0.9892 0.0000 -0.1464
vn 0.9654 0.0000 -0.2608
vn 0.0000 -0.9961 -0.0887
vn 0.0000 -0.9878 -0.1556
vn -0.9654 0.0000 -0.2608
vn -0.9892 0.0000 -0.1464
vn 0.6792 0.6743 -0.2897
vn 0.0000 0.9961 -0.0887
vn -0.6792 -0.6743 -0.2897
vn 0.6792 -0.6743 -0.2897
vn 0.0000 0.9676 -0.2523
vn -0.5913 0.6799 -0.4337
vn 0.9174 0.0000 -0.3979
vn 0.0000 -0.9676 -0.2523
vn -0.9174 0.0000 -0.3979
vn 0.5913 0.6799 -0.4337
vn -0.5913 -0.6799 -0.4337
vn 0.5913 -0.6799 -0.4337
vn -0.3446 0.3440 0.8735
vn -0.5613 0.5630 0.6066
vn -0.8310 -0.0013 0.5563
vn -0.5556 -0.0001 0.8315
vn 0.0008 0.5560 0.8312
vn 0.0000 0.8315 0.5556
vn 0.0000 0.5556 0.8315
vn -0.0000 0.5556 0.8315
vn -0.0008 0.8312 0.5560
vn 0.5563 -0.0013 0.8310
vn 0.8315 -0.0001 0.5556
vn 0.5639 0.5607 0.6063
vn 0.3443 0.3446 0.8733
vn -0.8315 0.0000 0.5556
vn -0.5556 0.0000 0.8315
vn 0.5556 0.0000 0.8315
vn 0.8315 0.0000 0.5556
vn -0.8315 0.0001 0.5556
vn -0.5563 0.0013 0.8310
vn 0.5556 0.0001 0.8315
vn 0.8310 0.0013 0.5563
vn -0.5639 -0.5607 0.6063
vn -0.3443 -0.3446 0.8733
vn 0.0008 -0.8312 0.5560
vn 0.0000 -0.5556 0.8315
vn 0.0000 -0.8315 0.5556
vn -0.0000 -0.8315 0.5556
vn -0.0008 -0.5560 0.8312
vn 0.5613 -0.5630 0.6066
vn 0.3446 -0.3440 0.8735
# 88 vertex normals

vt 0.4781 0.3303 0.0000
vt 0.4781 0.3781 0.0000
vt 0.3920 0.3781 0.0000
vt 0.3920 0.3303 0.0000
vt 0.2959 0.3781 0.0000
vt 0.2959 0.3303 0.0000
vt 0.1998 0.3781 0.0000
vt 0.1998 0.3303 0.0000
vt 0.1037 0.3781 0.0000
vt 0.1037 0.3303 0.0000
vt 0.0176 0.3781 0.0000
vt 0.0176 0.3303 0.0000
vt 0.4781 0.4359 0.0000
vt 0.3920 0.4359 0.0000
vt 0.2959 0.4359 0.0000
vt 0.1998 0.4359 0.0000
vt 0.1037 0.4359 0.0000
vt 0.0176 0.4359 0.0000
vt 0.4781 0.4936 0.0000
vt 0.3920 0.4936 0.0000
vt 0.2959 0.4936 0.0000
vt 0.1998 0.4936 0.0000
vt 0.1037 0.4936 0.0000
vt 0.0176 0.4936 0.0000
vt 0.4781 0.5514 0.0000
vt 0.3920 0.5514 0.0000
vt 0.2959 0.5514 0.0000
vt 0.1998 0.5514 0.0000
vt 0.1037 0.5514 0.0000
vt 0.0176 0.5514 0.0000
vt 0.4781 0.5992 0.0000
vt 0.3920 0.5992 0.0000
vt 0.2959 0.5992 0.0000
vt 0.1998 0.5992 0.0000
vt 0.1037 0.5992 0.0000
vt 0.0176 0.5992 0.0000
vt 0.7284 0.4062 0.0000
vt 0.7284 0.4536 0.0000
vt 0.6999 0.4536 0.0000
vt 0.6999 0.4062 0.0000
vt 0.1061 0.0100 0.0000
vt 0.2022 0.0100 0.0000
vt 0.2022 0.0678 0.0000
vt 0.1061 0.0678 0.0000
vt 0.2983 0.0100 0.0000
vt 0.2983 0.0678 0.0000
vt 0.3944 0.0100 0.0000
vt 0.3944 0.0678 0.0000
vt 0.3356 0.6339 0.0000
vt 0.3830 0.6339 0.0000
vt 0.3830 0.6624 0.0000
vt 0.3356 0.6624 0.0000
vt 0.0100 0.0678 0.0000
vt 0.1061 0.1255 0.0000
vt 0.0100 0.1255 0.0000
vt 0.2022 0.1255 0.0000
vt 0.2983 0.1255 0.0000
vt 0.3944 0.1255 0.0000
vt 0.4904 0.0678 0.0000
vt 0.4904 0.1255 0.0000
vt 0.1061 0.1833 0.0000
vt 0.0100 0.1833 0.0000
vt 0.2022 0.1833 0.0000
vt 0.2983 0.1833 0.0000
vt 0.3944 0.1833 0.0000
vt 0.4904 0.1833 0.0000
vt 0.1061 0.2411 0.0000
vt 0.0100 0.2411 0.0000
vt 0.2022 0.2411 0.0000
vt 0.2983 0.2411 0.0000
vt 0.3944 0.2411 0.0000
vt 0.4904 0.2411 0.0000
vt 0.6919 0.4062 0.0000
vt 0.6919 0.4536 0.0000
vt 0.6634 0.4536 0.0000
vt 0.6634 0.4062 0.0000
vt 0.2022 0.2988 0.0000
vt 0.1061 0.2988 0.0000
vt 0.2983 0.2988 0.0000
vt 0.3944 0.2988 0.0000
vt 0.6555 0.4062 0.0000
vt 0.6555 0.4536 0.0000
vt 0.6270 0.4536 0.0000
vt 0.6270 0.4062 0.0000
vt 0.4904 0.7960 0.0000
vt 0.3944 0.7960 0.0000
vt 0.3944 0.7720 0.0000
vt 0.4904 0.7720 0.0000
vt 0.2983 0.7960 0.0000
vt 0.2983 0.7720 0.0000
vt 0.2022 0.7960 0.0000
vt 0.2022 0.7720 0.0000
vt 0.1061 0.7960 0.0000
vt 0.1061 0.7720 0.0000
vt 0.0100 0.7960 0.0000
vt 0.0100 0.7720 0.0000
vt 0.8031 0.7960 0.0000
vt 0.7454 0.7960 0.0000
vt 0.7454 0.7720 0.0000
vt 0.8031 0.7720 0.0000
vt 0.6876 0.7960 0.0000
vt 0.6876 0.7720 0.0000
vt 0.6298 0.7960 0.0000
vt 0.6298 0.7720 0.0000
vt 0.5721 0.7960 0.0000
vt 0.5721 0.7720 0.0000
vt 0.5143 0.7960 0.0000
vt 0.5143 0.7720 0.0000
vt 0.5096 0.3297 0.0000
vt 0.6056 0.3297 0.0000
vt 0.6056 0.3538 0.0000
vt 0.5096 0.3538 0.0000
vt 0.7017 0.3297 0.0000
vt 0.7017 0.3538 0.0000
vt 0.7978 0.3297 0.0000
vt 0.7978 0.3538 0.0000
vt 0.8939 0.3297 0.0000
vt 0.8939 0.3538 0.0000
vt 0.9900 0.3297 0.0000
vt 0.9900 0.3538 0.0000
vt 0.5143 0.0176 0.0000
vt 0.5721 0.0176 0.0000
vt 0.5721 0.0417 0.0000
vt 0.5143 0.0417 0.0000
vt 0.6298 0.0176 0.0000
vt 0.6298 0.0417 0.0000
vt 0.6876 0.0176 0.0000
vt 0.6876 0.0417 0.0000
vt 0.7454 0.0176 0.0000
vt 0.7454 0.0417 0.0000
vt 0.8031 0.0176 0.0000
vt 0.8031 0.0417 0.0000
vt 0.4135 0.6426 0.0000
vt 0.4713 0.6426 0.0000
vt 0.3781 0.7616 0.0000
vt 0.2487 0.7501 0.0000
vt 0.2487 0.7153 0.0000
vt 0.3781 0.7038 0.0000
vt 0.1513 0.9230 0.0000
vt 0.0219 0.9038 0.0000
vt 0.0219 0.8460 0.0000
vt 0.1513 0.8269 0.0000
vt 0.7916 0.1711 0.0000
vt 0.7569 0.1711 0.0000
vt 0.7364 0.3958 0.0000
vt 0.8657 0.4074 0.0000
vt 0.8657 0.4421 0.0000
vt 0.7364 0.4536 0.0000
vt 0.0292 0.6426 0.0000
vt 0.0869 0.6426 0.0000
vt 0.7569 0.6426 0.0000
vt 0.7916 0.6426 0.0000
vt 0.9762 0.7267 0.0000
vt 0.8469 0.7076 0.0000
vt 0.8469 0.6498 0.0000
vt 0.9762 0.6307 0.0000
vt 0.8349 0.0100 0.0000
vt 0.9643 0.0292 0.0000
vt 0.9643 0.0869 0.0000
vt 0.8349 0.1061 0.0000
vt 0.5855 0.7025 0.0000
vt 0.7149 0.7140 0.0000
vt 0.7149 0.7487 0.0000
vt 0.5855 0.7602 0.0000
vt 0.9708 0.4832 0.0000
vt 0.9131 0.4832 0.0000
vt 0.5606 0.1711 0.0000
vt 0.5258 0.1711 0.0000
vt 0.5143 0.8355 0.0000
vt 0.6437 0.8546 0.0000
vt 0.6437 0.9124 0.0000
vt 0.5143 0.9316 0.0000
vt 0.5258 0.6426 0.0000
vt 0.5606 0.6426 0.0000
vt 0.5865 0.4832 0.0000
vt 0.5287 0.4832 0.0000
vt 0.7268 0.1396 0.0000
vt 0.5975 0.1281 0.0000
vt 0.5975 0.0933 0.0000
vt 0.7268 0.0818 0.0000
vt 0.4187 0.6307 0.0000
vt 0.4661 0.6307 0.0000
vt 0.2368 0.7469 0.0000
vt 0.2368 0.7184 0.0000
vt 0.0100 0.8987 0.0000
vt 0.0100 0.8512 0.0000
vt 0.7885 0.1830 0.0000
vt 0.7600 0.1830 0.0000
vt 0.8777 0.4105 0.0000
vt 0.8777 0.4390 0.0000
vt 0.0343 0.6307 0.0000
vt 0.0818 0.6307 0.0000
vt 0.7600 0.6307 0.0000
vt 0.7885 0.6307 0.0000
vt 0.8349 0.7024 0.0000
vt 0.8349 0.6550 0.0000
vt 0.9762 0.0343 0.0000
vt 0.9762 0.0818 0.0000
vt 0.7268 0.7171 0.0000
vt 0.7268 0.7456 0.0000
vt 0.9657 0.4951 0.0000
vt 0.9182 0.4951 0.0000
vt 0.5574 0.1830 0.0000
vt 0.5289 0.1830 0.0000
vt 0.6556 0.8598 0.0000
vt 0.6556 0.9072 0.0000
vt 0.5289 0.6307 0.0000
vt 0.5574 0.6307 0.0000
vt 0.5813 0.4951 0.0000
vt 0.5339 0.4951 0.0000
vt 0.5855 0.1250 0.0000
vt 0.5855 0.0964 0.0000
vt 0.7996 0.0100 0.0000
vt 0.8008 0.0112 0.0000
vt 0.7454 0.0106 0.0000
vt 0.7454 0.0105 0.0000
vt 0.3920 0.3233 0.0000
vt 0.3920 0.3232 0.0000
vt 0.4857 0.3227 0.0000
vt 0.4845 0.3239 0.0000
vt 0.2959 0.3233 0.0000
vt 0.2959 0.3232 0.0000
vt 0.1998 0.3233 0.0000
vt 0.1998 0.3232 0.0000
vt 0.6786 0.6561 0.0000
vt 0.6786 0.6562 0.0000
vt 0.5826 0.6562 0.0000
vt 0.5826 0.6561 0.0000
vt 0.7454 0.8031 0.0000
vt 0.7454 0.8030 0.0000
vt 0.8008 0.8025 0.0000
vt 0.7996 0.8037 0.0000
vt 0.0112 0.3239 0.0000
vt 0.0100 0.3227 0.0000
vt 0.1037 0.3232 0.0000
vt 0.1037 0.3233 0.0000
vt 0.6981 0.6642 0.0000
vt 0.6981 0.6643 0.0000
vt 0.6403 0.6643 0.0000
vt 0.6403 0.6642 0.0000
vt 0.6285 0.6336 0.0000
vt 0.6285 0.6334 0.0000
vt 0.6862 0.6334 0.0000
vt 0.6862 0.6336 0.0000
vt 0.5826 0.6643 0.0000
vt 0.5826 0.6642 0.0000
vt 0.5707 0.6336 0.0000
vt 0.5707 0.6334 0.0000
vt 0.6298 0.0105 0.0000
vt 0.6298 0.0106 0.0000
vt 0.5721 0.0106 0.0000
vt 0.5721 0.0105 0.0000
vt 0.5721 0.8031 0.0000
vt 0.5721 0.8030 0.0000
vt 0.6298 0.8030 0.0000
vt 0.6298 0.8031 0.0000
vt 0.5167 0.0112 0.0000
vt 0.5178 0.0100 0.0000
vt 0.4845 0.6057 0.0000
vt 0.4857 0.6068 0.0000
vt 0.3920 0.6063 0.0000
vt 0.3920 0.6062 0.0000
vt 0.2959 0.6063 0.0000
vt 0.2959 0.6062 0.0000
vt 0.1998 0.6063 0.0000
vt 0.1998 0.6062 0.0000
vt 0.5855 0.6945 0.0000
vt 0.5855 0.6944 0.0000
vt 0.6816 0.6944 0.0000
vt 0.6816 0.6945 0.0000
vt 0.1037 0.6062 0.0000
vt 0.1037 0.6063 0.0000
vt 0.0100 0.6068 0.0000
vt 0.0112 0.6057 0.0000
vt 0.5178 0.8037 0.0000
vt 0.5167 0.8025 0.0000
vt 0.4851 0.3781 0.0000
vt 0.0106 0.3781 0.0000
vt 0.4851 0.4359 0.0000
vt 0.0106 0.4359 0.0000
vt 0.4851 0.4936 0.0000
vt 0.0106 0.4936 0.0000
vt 0.4851 0.5514 0.0000
vt 0.0106 0.5514 0.0000
vt 0.3944 0.8030 0.0000
vt 0.4881 0.8025 0.0000
vt 0.2983 0.8030 0.0000
vt 0.2022 0.8030 0.0000
vt 0.1061 0.8030 0.0000
vt 0.0124 0.8025 0.0000
vt 0.6876 0.0106 0.0000
vt 0.6876 0.8030 0.0000
vt 0.9876 0.3232 0.0000
vt 0.8939 0.3227 0.0000
vt 0.7978 0.3227 0.0000
vt 0.7017 0.3227 0.0000
vt 0.6056 0.3227 0.0000
vt 0.5119 0.3232 0.0000
# 298 texture coords

g Box001
usemtl 03___Default
s 1
f 1/1/1 2/2/2 3/3/3 4/4/4 
f 4/4/4 3/3/3 5/5/3 6/6/5 
f 6/6/5 5/5/3 7/7/3 8/8/5 
f 8/8/5 7/7/3 9/9/3 10/10/5 
f 10/10/5 9/9/3 11/11/6 12/12/7 
f 2/2/2 13/13/2 14/14/3 3/3/3 
f 3/3/3 14/14/3 15/15/3 5/5/3 
f 5/5/3 15/15/3 16/16/3 7/7/3 
f 7/7/3 16/16/3 17/17/3 9/9/3 
f 9/9/3 17/17/3 18/18/8 11/11/6 
f 13/13/2 19/19/2 20/20/3 14/14/3 
f 14/14/3 20/20/3 21/21/3 15/15/3 
f 15/15/3 21/21/3 22/22/3 16/16/3 
f 16/16/3 22/22/3 23/23/3 17/17/3 
f 17/17/3 23/23/3 24/24/8 18/18/8 
f 19/19/2 25/25/9 26/26/3 20/20/3 
f 20/20/3 26/26/3 27/27/3 21/21/3 
f 21/21/3 27/27/3 28/28/3 22/22/3 
f 22/22/3 28/28/3 29/29/3 23/23/3 
f 23/23/3 29/29/3 30/30/8 24/24/8 
f 25/25/9 31/31/10 32/32/11 26/26/3 
f 26/26/3 32/32/11 33/33/11 27/27/3 
f 27/27/3 33/33/11 34/34/11 28/28/3 
f 28/28/3 34/34/11 35/35/12 29/29/3 
f 29/29/3 35/35/12 36/36/13 30/30/8 
s 2
f 37/37/14 38/38/14 39/39/14 40/40/14 
f 41/41/14 42/42/14 43/43/14 44/44/14 
f 42/42/14 45/45/14 46/46/14 43/43/14 
f 45/45/14 47/47/14 48/48/14 46/46/14 
f 49/49/14 50/50/14 51/51/14 52/52/14 
f 53/53/14 44/44/14 54/54/14 55/55/14 
f 44/44/14 43/43/14 56/56/14 54/54/14 
f 43/43/14 46/46/14 57/57/14 56/56/14 
f 46/46/14 48/48/14 58/58/14 57/57/14 
f 48/48/14 59/59/14 60/60/14 58/58/14 
f 55/55/14 54/54/14 61/61/14 62/62/14 
f 54/54/14 56/56/14 63/63/14 61/61/14 
f 56/56/14 57/57/14 64/64/14 63/63/14 
f 57/57/14 58/58/14 65/65/14 64/64/14 
f 58/58/14 60/60/14 66/66/14 65/65/14 
f 62/62/14 61/61/14 67/67/14 68/68/14 
f 61/61/14 63/63/14 69/69/14 67/67/14 
f 63/63/14 64/64/14 70/70/14 69/69/14 
f 64/64/14 65/65/14 71/71/14 70/70/14 
f 65/65/14 66/66/14 72/72/14 71/71/14 
f 73/73/14 74/74/14 75/75/14 76/76/14 
f 67/67/14 69/69/14 77/77/14 78/78/14 
f 69/69/14 70/70/14 79/79/14 77/77/14 
f 70/70/14 71/71/14 80/80/14 79/79/14 
f 81/81/14 82/82/14 83/83/14 84/84/14 
s 1
f 85/85/15 86/86/16 41/87/17 87/88/18 
f 86/86/16 88/89/16 42/90/19 41/87/17 
f 88/89/16 89/91/16 45/92/19 42/90/19 
f 89/91/16 90/93/20 47/94/17 45/92/19 
f 90/93/20 91/95/21 92/96/22 47/94/17 
f 91/97/21 93/98/23 59/99/24 92/100/22 
f 93/98/23 94/101/23 60/102/25 59/99/24 
f 94/101/23 95/103/23 66/104/25 60/102/25 
f 95/103/23 96/105/26 72/106/24 66/104/25 
f 96/105/26 97/107/27 98/108/28 72/106/24 
f 97/109/27 99/110/29 80/111/30 98/112/28 
f 99/110/29 100/113/29 79/114/31 80/111/30 
f 100/113/29 101/115/29 77/116/31 79/114/31 
f 101/115/29 102/117/32 78/118/30 77/116/31 
f 102/117/32 103/119/33 104/120/34 78/118/30 
f 103/121/33 105/122/35 68/123/36 104/124/34 
f 105/122/35 106/125/35 62/126/37 68/123/36 
f 106/125/35 107/127/35 55/128/37 62/126/37 
f 107/127/35 108/129/38 53/130/36 55/128/37 
f 108/129/38 85/131/15 87/132/18 53/130/36 
f 41/87/17 109/133/39 110/134/40 87/88/18 
s 4
f 44/135/41 111/136/42 109/137/42 41/138/41 
s 8
f 53/139/43 112/140/44 111/141/44 44/142/43 
s 1
f 87/132/18 110/143/40 112/144/45 53/130/36 
s 4
f 47/145/46 113/146/45 114/147/45 48/148/46 
s 1
f 92/96/22 115/149/47 113/150/39 47/94/17 
f 59/99/24 116/151/42 115/152/47 92/100/22 
s 8
f 48/153/43 114/154/44 116/155/44 59/156/43 
s 4
f 67/157/48 117/158/39 118/159/39 68/160/48 
s 8
f 78/161/41 119/162/42 117/163/42 67/164/41 
s 1
f 104/120/34 120/165/49 119/166/44 78/118/30 
f 68/123/36 118/167/45 120/168/49 104/124/34 
s 4
f 72/169/48 121/170/39 122/171/39 71/172/48 
s 1
f 98/108/28 123/173/50 121/174/42 72/106/24 
f 80/111/30 124/175/44 123/176/50 98/112/28 
s 8
f 71/177/46 122/178/45 124/179/45 80/180/46 
s 1
f 38/181/51 37/182/52 110/134/40 109/133/39 
s 4
f 39/183/53 38/184/53 109/137/42 111/136/42 
s 8
f 40/185/54 39/186/54 111/141/44 112/140/44 
s 1
f 37/187/52 40/188/55 112/144/45 110/143/40 
s 4
f 49/189/55 52/190/55 114/147/45 113/146/45 
s 1
f 50/191/56 49/192/51 113/150/39 115/149/47 
f 51/193/53 50/194/56 115/152/47 116/151/42 
s 8
f 52/195/54 51/196/54 116/155/44 114/154/44 
s 4
f 74/197/51 73/198/51 118/159/39 117/158/39 
s 8
f 75/199/53 74/200/53 117/163/42 119/162/42 
s 1
f 76/201/57 75/202/54 119/166/44 120/165/49 
f 73/203/55 76/204/57 120/168/49 118/167/45 
s 4
f 82/205/51 81/206/51 122/171/39 121/170/39 
s 1
f 83/207/58 82/208/53 121/174/42 123/173/50 
f 84/209/54 83/210/58 123/176/50 124/175/44 
s 8
f 81/211/55 84/212/55 124/179/45 122/178/45 
s 1
f 125/213/59 126/214/60 127/215/61 128/216/62 
f 129/217/63 130/218/64 126/219/60 125/220/59 
f 131/221/65 132/222/64 130/218/64 129/217/63 
f 133/223/65 134/224/64 132/222/64 131/221/65 
f 135/225/66 136/226/67 134/227/64 133/228/65 
f 137/229/68 138/230/69 139/231/70 140/232/71 
f 140/233/71 139/234/70 136/235/67 135/236/66 
f 128/237/62 127/238/61 141/239/72 142/240/73 
f 143/241/74 144/242/75 138/243/69 137/244/68 
f 142/240/73 141/239/72 145/245/72 146/246/73 
f 147/247/74 148/248/75 144/242/75 143/241/74 
f 146/249/73 145/250/72 149/251/76 150/252/77 
f 151/253/78 152/254/79 148/255/75 147/256/74 
f 150/252/77 149/251/76 153/257/80 154/258/81 
f 154/259/81 153/260/80 155/261/82 156/262/83 
f 156/262/83 155/261/82 157/263/84 158/264/83 
f 158/264/83 157/263/84 159/265/84 160/266/83 
f 160/267/83 159/268/84 161/269/85 162/270/86 
f 162/271/86 161/272/85 163/273/87 164/274/88 
f 164/275/88 163/276/87 152/254/79 151/253/78 
f 1/1/1 125/220/59 128/277/62 2/2/2 
f 4/4/4 129/217/63 125/220/59 1/1/1 
f 6/6/5 131/221/65 129/217/63 4/4/4 
f 8/8/5 133/223/65 131/221/65 6/6/5 
f 10/10/5 135/236/66 133/223/65 8/8/5 
f 11/11/6 137/278/68 140/233/71 12/12/7 
f 12/12/7 140/233/71 135/236/66 10/10/5 
f 2/2/2 128/277/62 142/279/73 13/13/2 
f 18/18/8 143/280/74 137/278/68 11/11/6 
f 13/13/2 142/279/73 146/281/73 19/19/2 
f 24/24/8 147/282/74 143/280/74 18/18/8 
f 19/19/2 146/281/73 150/283/77 25/25/9 
f 30/30/8 151/284/78 147/282/74 24/24/8 
f 25/25/9 150/283/77 154/259/81 31/31/10 
f 31/31/10 154/259/81 156/262/83 32/32/11 
f 32/32/11 156/262/83 158/264/83 33/33/11 
f 33/33/11 158/264/83 160/266/83 34/34/11 
f 34/34/11 160/266/83 162/271/86 35/35/12 
f 35/35/12 162/271/86 164/274/88 36/36/13 
f 36/36/13 164/274/88 151/284/78 30/30/8 
f 126/214/60 85/131/15 108/129/38 127/215/61 
f 130/285/64 86/86/16 85/85/15 126/286/60 
f 132/287/64 88/89/16 86/86/16 130/285/64 
f 134/288/64 89/91/16 88/89/16 132/287/64 
f 136/289/67 90/93/20 89/91/16 134/288/64 
f 138/230/69 93/98/23 91/97/21 139/231/70 
f 139/290/70 91/95/21 90/93/20 136/289/67 
f 127/215/61 108/129/38 107/127/35 141/291/72 
f 144/292/75 94/101/23 93/98/23 138/230/69 
f 141/291/72 107/127/35 106/125/35 145/250/72 
f 148/255/75 95/103/23 94/101/23 144/292/75 
f 145/250/72 106/125/35 105/122/35 149/251/76 
f 152/254/79 96/105/26 95/103/23 148/255/75 
f 149/251/76 105/122/35 103/121/33 153/257/80 
f 153/293/80 103/119/33 102/117/32 155/294/82 
f 155/294/82 102/117/32 101/115/29 157/295/84 
f 157/295/84 101/115/29 100/113/29 159/296/84 
f 159/296/84 100/113/29 99/110/29 161/297/85 
f 161/297/85 99/110/29 97/109/27 163/298/87 
f 163/276/87 97/107/27 96/105/26 152/254/79 
# 162 polygons

