# 3ds Max Wavefront OBJ Exporter v0.97b - (c)2007 guruware
# File Created: 29.04.2015 17:27:44

mtllib circle.mtl

#
# object Cylinder001
#

v  23.0533 2.5537 26.4727
v  22.7694 2.5537 30.0790
v  22.7694 2.3413 30.0790
v  23.0533 2.3413 26.4727
v  21.9250 2.5537 33.5966
v  21.9250 2.3413 33.5966
v  20.5406 2.5537 36.9387
v  20.5406 2.3413 36.9387
v  18.6505 2.5537 40.0231
v  18.6505 2.3413 40.0231
v  16.3011 2.5537 42.7738
v  16.3011 2.3413 42.7738
v  13.5504 2.5537 45.1232
v  13.5504 2.3413 45.1232
v  10.4660 2.5537 47.0133
v  10.4660 2.3413 47.0133
v  7.1238 2.5537 48.3977
v  7.1238 2.3413 48.3977
v  3.6063 2.5537 49.2421
v  3.6063 2.3413 49.2421
v  -0.0000 2.5536 49.5260
v  -0.0000 2.3413 49.5260
v  -3.6063 2.5537 49.2421
v  -3.6063 2.3413 49.2421
v  -7.1239 2.5537 48.3977
v  -7.1239 2.3413 48.3977
v  -10.4660 2.5537 47.0133
v  -10.4660 2.3413 47.0133
v  -13.5504 2.5537 45.1232
v  -13.5504 2.3413 45.1232
v  -16.3011 2.5537 42.7738
v  -16.3011 2.3413 42.7738
v  -18.6505 2.5537 40.0231
v  -18.6505 2.3413 40.0231
v  -20.5406 2.5537 36.9387
v  -20.5406 2.3413 36.9387
v  -21.9250 2.5537 33.5965
v  -21.9250 2.3413 33.5965
v  -22.7694 2.5537 30.0790
v  -22.7694 2.3413 30.0790
v  -23.0533 2.5537 26.4727
v  -23.0533 2.3413 26.4727
v  -22.7694 2.5537 22.8664
v  -22.7694 2.3413 22.8664
v  -21.9250 2.5537 19.3488
v  -21.9250 2.3413 19.3488
v  -20.5406 2.5537 16.0067
v  -20.5406 2.3413 16.0067
v  -18.6505 2.5537 12.9223
v  -18.6505 2.3413 12.9223
v  -16.3011 2.5537 10.1716
v  -16.3011 2.3413 10.1716
v  -13.5503 2.5537 7.8222
v  -13.5503 2.3413 7.8222
v  -10.4659 2.5537 5.9321
v  -10.4659 2.3413 5.9321
v  -7.1238 2.5537 4.5477
v  -7.1238 2.3413 4.5477
v  -3.6063 2.5537 3.7033
v  -3.6063 2.3413 3.7033
v  0.0000 2.5537 3.4194
v  0.0000 2.3413 3.4194
v  3.6064 2.5537 3.7033
v  3.6064 2.3413 3.7033
v  7.1239 2.5537 4.5478
v  7.1239 2.3413 4.5478
v  10.4660 2.5537 5.9321
v  10.4660 2.3413 5.9321
v  13.5504 2.5537 7.8223
v  13.5504 2.3413 7.8223
v  16.3011 2.5537 10.1716
v  16.3011 2.3413 10.1716
v  18.6505 2.5537 12.9224
v  18.6505 2.3413 12.9224
v  20.5406 2.5537 16.0068
v  20.5406 2.3413 16.0068
v  21.9250 2.5537 19.3489
v  21.9250 2.3413 19.3489
v  22.7694 2.5537 22.8664
v  22.7694 2.3413 22.8664
# 80 vertices

vn 1.0000 0.0000 0.0000
vn 0.9877 -0.0000 0.1564
vn 1.0000 -0.0000 0.0000
vn 0.9511 -0.0000 0.3090
vn 0.8910 -0.0000 0.4540
vn 0.8090 -0.0000 0.5878
vn 0.7071 0.0000 0.7071
vn 0.5878 -0.0000 0.8090
vn 0.4540 -0.0000 0.8910
vn 0.3090 -0.0000 0.9511
vn 0.1564 -0.0000 0.9877
vn -0.0000 -0.0000 1.0000
vn -0.1564 -0.0000 0.9877
vn -0.3090 -0.0000 0.9511
vn -0.4540 -0.0000 0.8910
vn -0.5878 -0.0000 0.8090
vn -0.7071 -0.0000 0.7071
vn -0.8090 -0.0000 0.5878
vn -0.8910 -0.0000 0.4540
vn -0.9511 -0.0000 0.3090
vn -0.9877 -0.0000 0.1564
vn -1.0000 -0.0000 -0.0000
vn -1.0000 0.0000 -0.0000
vn -0.9877 0.0000 -0.1564
vn -0.9511 -0.0000 -0.3090
vn -0.9511 0.0000 -0.3090
vn -0.8910 -0.0000 -0.4540
vn -0.8090 -0.0000 -0.5878
vn -0.7071 0.0000 -0.7071
vn -0.5878 0.0000 -0.8090
vn -0.4540 0.0000 -0.8910
vn -0.3090 -0.0000 -0.9511
vn -0.1564 0.0000 -0.9877
vn 0.0000 0.0000 -1.0000
vn 0.1564 0.0000 -0.9877
vn 0.3090 0.0000 -0.9511
vn 0.4540 -0.0000 -0.8910
vn 0.5878 0.0000 -0.8090
vn 0.7071 0.0000 -0.7071
vn 0.8090 0.0000 -0.5878
vn 0.8910 0.0000 -0.4540
vn 0.9511 0.0000 -0.3090
vn 0.9877 0.0000 -0.1564
vn 0.0000 1.0000 0.0000
vn -0.0000 1.0000 0.0000
vn 0.0000 -1.0000 -0.0000
# 46 vertex normals

vt 0.5068 0.1980 0.0000
vt 0.5068 0.1590 0.0000
vt 0.5139 0.1590 0.0000
vt 0.5139 0.1980 0.0000
vt 0.5068 0.1210 0.0000
vt 0.5139 0.1210 0.0000
vt 0.5068 0.0849 0.0000
vt 0.5139 0.0849 0.0000
vt 0.5068 0.0516 0.0000
vt 0.5139 0.0516 0.0000
vt 0.5068 0.0219 0.0000
vt 0.5139 0.0219 0.0000
vt 0.5197 0.3740 0.0000
vt 0.5197 0.3443 0.0000
vt 0.5268 0.3443 0.0000
vt 0.5268 0.3740 0.0000
vt 0.5197 0.3110 0.0000
vt 0.5268 0.3110 0.0000
vt 0.5197 0.2749 0.0000
vt 0.5268 0.2749 0.0000
vt 0.5197 0.2369 0.0000
vt 0.5268 0.2369 0.0000
vt 0.5197 0.1980 0.0000
vt 0.5268 0.1980 0.0000
vt 0.5197 0.1590 0.0000
vt 0.5268 0.1590 0.0000
vt 0.5197 0.1210 0.0000
vt 0.5268 0.1210 0.0000
vt 0.5197 0.0849 0.0000
vt 0.5268 0.0849 0.0000
vt 0.5197 0.0516 0.0000
vt 0.5268 0.0516 0.0000
vt 0.5197 0.0219 0.0000
vt 0.5268 0.0219 0.0000
vt 0.5455 0.3740 0.0000
vt 0.5455 0.3443 0.0000
vt 0.5526 0.3443 0.0000
vt 0.5526 0.3740 0.0000
vt 0.5455 0.3110 0.0000
vt 0.5526 0.3110 0.0000
vt 0.5455 0.2749 0.0000
vt 0.5526 0.2749 0.0000
vt 0.5455 0.2369 0.0000
vt 0.5526 0.2369 0.0000
vt 0.5455 0.1980 0.0000
vt 0.5526 0.1980 0.0000
vt 0.5455 0.1590 0.0000
vt 0.5526 0.1590 0.0000
vt 0.5455 0.1210 0.0000
vt 0.5526 0.1210 0.0000
vt 0.5455 0.0849 0.0000
vt 0.5526 0.0849 0.0000
vt 0.5455 0.0516 0.0000
vt 0.5526 0.0516 0.0000
vt 0.5455 0.0219 0.0000
vt 0.5526 0.0219 0.0000
vt 0.5326 0.3740 0.0000
vt 0.5326 0.3443 0.0000
vt 0.5397 0.3443 0.0000
vt 0.5397 0.3740 0.0000
vt 0.5326 0.3110 0.0000
vt 0.5397 0.3110 0.0000
vt 0.5326 0.2749 0.0000
vt 0.5397 0.2749 0.0000
vt 0.5326 0.2369 0.0000
vt 0.5397 0.2369 0.0000
vt 0.5326 0.1980 0.0000
vt 0.5397 0.1980 0.0000
vt 0.5326 0.1590 0.0000
vt 0.5397 0.1590 0.0000
vt 0.5326 0.1210 0.0000
vt 0.5397 0.1210 0.0000
vt 0.5326 0.0849 0.0000
vt 0.5397 0.0849 0.0000
vt 0.5326 0.0516 0.0000
vt 0.5397 0.0516 0.0000
vt 0.5326 0.0219 0.0000
vt 0.5397 0.0219 0.0000
vt 0.5068 0.3740 0.0000
vt 0.5068 0.3443 0.0000
vt 0.5139 0.3443 0.0000
vt 0.5139 0.3740 0.0000
vt 0.5068 0.3110 0.0000
vt 0.5139 0.3110 0.0000
vt 0.5068 0.2749 0.0000
vt 0.5139 0.2749 0.0000
vt 0.5068 0.2369 0.0000
vt 0.5139 0.2369 0.0000
vt 0.2019 0.4873 0.0000
vt 0.1667 0.4757 0.0000
vt 0.1337 0.4588 0.0000
vt 0.1037 0.4370 0.0000
vt 0.0776 0.4107 0.0000
vt 0.0558 0.3807 0.0000
vt 0.0390 0.3476 0.0000
vt 0.0276 0.3123 0.0000
vt 0.0219 0.2756 0.0000
vt 0.0220 0.2386 0.0000
vt 0.0279 0.2019 0.0000
vt 0.0394 0.1667 0.0000
vt 0.0563 0.1337 0.0000
vt 0.0782 0.1037 0.0000
vt 0.1044 0.0776 0.0000
vt 0.1345 0.0558 0.0000
vt 0.1676 0.0390 0.0000
vt 0.2028 0.0276 0.0000
vt 0.2395 0.0219 0.0000
vt 0.2766 0.0220 0.0000
vt 0.3132 0.0279 0.0000
vt 0.3484 0.0394 0.0000
vt 0.3814 0.0563 0.0000
vt 0.4114 0.0782 0.0000
vt 0.4376 0.1044 0.0000
vt 0.4593 0.1345 0.0000
vt 0.4761 0.1676 0.0000
vt 0.4875 0.2028 0.0000
vt 0.4932 0.2395 0.0000
vt 0.4931 0.2766 0.0000
vt 0.4873 0.3132 0.0000
vt 0.4757 0.3484 0.0000
vt 0.4588 0.3814 0.0000
vt 0.4370 0.4114 0.0000
vt 0.4107 0.4376 0.0000
vt 0.3807 0.4593 0.0000
vt 0.3476 0.4761 0.0000
vt 0.3123 0.4875 0.0000
vt 0.2756 0.4932 0.0000
vt 0.2386 0.4931 0.0000
vt 0.2386 0.9780 0.0000
vt 0.2019 0.9721 0.0000
vt 0.1667 0.9606 0.0000
vt 0.1337 0.9437 0.0000
vt 0.1037 0.9218 0.0000
vt 0.0776 0.8956 0.0000
vt 0.0558 0.8655 0.0000
vt 0.0390 0.8324 0.0000
vt 0.0276 0.7972 0.0000
vt 0.0219 0.7605 0.0000
vt 0.0220 0.7234 0.0000
vt 0.0279 0.6868 0.0000
vt 0.0394 0.6516 0.0000
vt 0.0563 0.6186 0.0000
vt 0.0782 0.5886 0.0000
vt 0.1044 0.5624 0.0000
vt 0.1345 0.5407 0.0000
vt 0.1676 0.5239 0.0000
vt 0.2028 0.5125 0.0000
vt 0.2395 0.5068 0.0000
vt 0.2766 0.5069 0.0000
vt 0.3132 0.5127 0.0000
vt 0.3484 0.5243 0.0000
vt 0.3815 0.5412 0.0000
vt 0.4114 0.5630 0.0000
vt 0.4376 0.5893 0.0000
vt 0.4593 0.6193 0.0000
vt 0.4761 0.6524 0.0000
vt 0.4875 0.6877 0.0000
vt 0.4932 0.7244 0.0000
vt 0.4931 0.7614 0.0000
vt 0.4873 0.7981 0.0000
vt 0.4757 0.8333 0.0000
vt 0.4588 0.8663 0.0000
vt 0.4370 0.8963 0.0000
vt 0.4107 0.9224 0.0000
vt 0.3807 0.9442 0.0000
vt 0.3476 0.9610 0.0000
vt 0.3123 0.9724 0.0000
vt 0.2756 0.9781 0.0000
# 168 texture coords

g Cylinder001
usemtl 07___Default
s 8
f 1/1/1 2/2/2 3/3/2 
f 3/3/2 4/4/3 1/1/1 
f 2/2/2 5/5/4 6/6/4 
f 6/6/4 3/3/2 2/2/2 
f 5/5/4 7/7/5 8/8/5 
f 8/8/5 6/6/4 5/5/4 
f 7/7/5 9/9/6 10/10/6 
f 10/10/6 8/8/5 7/7/5 
f 9/9/6 11/11/7 12/12/7 
f 12/12/7 10/10/6 9/9/6 
f 11/13/7 13/14/8 14/15/8 
f 14/15/8 12/16/7 11/13/7 
f 13/14/8 15/17/9 16/18/9 
f 16/18/9 14/15/8 13/14/8 
f 15/17/9 17/19/10 18/20/10 
f 18/20/10 16/18/9 15/17/9 
f 17/19/10 19/21/11 20/22/11 
f 20/22/11 18/20/10 17/19/10 
f 19/21/11 21/23/12 22/24/12 
f 22/24/12 20/22/11 19/21/11 
f 21/23/12 23/25/13 24/26/13 
f 24/26/13 22/24/12 21/23/12 
f 23/25/13 25/27/14 26/28/14 
f 26/28/14 24/26/13 23/25/13 
f 25/27/14 27/29/15 28/30/15 
f 28/30/15 26/28/14 25/27/14 
f 27/29/15 29/31/16 30/32/16 
f 30/32/16 28/30/15 27/29/15 
f 29/31/16 31/33/17 32/34/17 
f 32/34/17 30/32/16 29/31/16 
f 31/35/17 33/36/18 34/37/18 
f 34/37/18 32/38/17 31/35/17 
f 33/36/18 35/39/19 36/40/19 
f 36/40/19 34/37/18 33/36/18 
f 35/39/19 37/41/20 38/42/20 
f 38/42/20 36/40/19 35/39/19 
f 37/41/20 39/43/21 40/44/21 
f 40/44/21 38/42/20 37/41/20 
f 39/43/21 41/45/22 42/46/23 
f 42/46/23 40/44/21 39/43/21 
f 41/45/22 43/47/24 44/48/24 
f 44/48/24 42/46/23 41/45/22 
f 43/47/24 45/49/25 46/50/26 
f 46/50/26 44/48/24 43/47/24 
f 45/49/25 47/51/27 48/52/27 
f 48/52/27 46/50/26 45/49/25 
f 47/51/27 49/53/28 50/54/28 
f 50/54/28 48/52/27 47/51/27 
f 49/53/28 51/55/29 52/56/29 
f 52/56/29 50/54/28 49/53/28 
f 51/57/29 53/58/30 54/59/30 
f 54/59/30 52/60/29 51/57/29 
f 53/58/30 55/61/31 56/62/31 
f 56/62/31 54/59/30 53/58/30 
f 55/61/31 57/63/32 58/64/32 
f 58/64/32 56/62/31 55/61/31 
f 57/63/32 59/65/33 60/66/33 
f 60/66/33 58/64/32 57/63/32 
f 59/65/33 61/67/34 62/68/34 
f 62/68/34 60/66/33 59/65/33 
f 61/67/34 63/69/35 64/70/35 
f 64/70/35 62/68/34 61/67/34 
f 63/69/35 65/71/36 66/72/36 
f 66/72/36 64/70/35 63/69/35 
f 65/71/36 67/73/37 68/74/37 
f 68/74/37 66/72/36 65/71/36 
f 67/73/37 69/75/38 70/76/38 
f 70/76/38 68/74/37 67/73/37 
f 69/75/38 71/77/39 72/78/39 
f 72/78/39 70/76/38 69/75/38 
f 71/79/39 73/80/40 74/81/40 
f 74/81/40 72/82/39 71/79/39 
f 73/80/40 75/83/41 76/84/41 
f 76/84/41 74/81/40 73/80/40 
f 75/83/41 77/85/42 78/86/42 
f 78/86/42 76/84/41 75/83/41 
f 77/85/42 79/87/43 80/88/43 
f 80/88/43 78/86/42 77/85/42 
f 79/87/43 1/1/1 4/4/3 
f 4/4/3 80/88/43 79/87/43 
s 1
f 77/89/44 75/90/44 73/91/44 
f 73/91/44 71/92/44 69/93/45 
f 69/93/45 67/94/45 65/95/45 
f 73/91/44 69/93/45 65/95/45 
f 65/95/45 63/96/44 61/97/44 
f 61/97/44 59/98/44 57/99/44 
f 65/95/45 61/97/44 57/99/44 
f 57/99/44 55/100/44 53/101/44 
f 53/101/44 51/102/44 49/103/45 
f 57/99/44 53/101/44 49/103/45 
f 65/95/45 57/99/44 49/103/45 
f 49/103/45 47/104/45 45/105/45 
f 45/105/45 43/106/44 41/107/44 
f 49/103/45 45/105/45 41/107/44 
f 41/107/44 39/108/44 37/109/44 
f 37/109/44 35/110/44 33/111/44 
f 41/107/44 37/109/44 33/111/44 
f 49/103/45 41/107/44 33/111/44 
f 33/111/44 31/112/44 29/113/45 
f 29/113/45 27/114/45 25/115/45 
f 33/111/44 29/113/45 25/115/45 
f 25/115/45 23/116/44 21/117/44 
f 21/117/44 19/118/44 17/119/44 
f 25/115/45 21/117/44 17/119/44 
f 33/111/44 25/115/45 17/119/44 
f 17/119/44 15/120/44 13/121/44 
f 13/121/44 11/122/44 9/123/44 
f 17/119/44 13/121/44 9/123/44 
f 9/123/44 7/124/44 5/125/44 
f 5/125/44 2/126/44 1/127/44 
f 9/123/44 5/125/44 1/127/44 
f 17/119/44 9/123/44 1/127/44 
f 33/111/44 17/119/44 1/127/44 
f 49/103/45 33/111/44 1/127/44 
f 65/95/45 49/103/45 1/127/44 
f 73/91/44 65/95/45 1/127/44 
f 77/89/44 73/91/44 1/127/44 
f 79/128/44 77/89/44 1/127/44 
f 3/129/46 6/130/46 8/131/46 
f 8/131/46 10/132/46 12/133/46 
f 12/133/46 14/134/46 16/135/46 
f 8/131/46 12/133/46 16/135/46 
f 16/135/46 18/136/46 20/137/46 
f 20/137/46 22/138/46 24/139/46 
f 16/135/46 20/137/46 24/139/46 
f 24/139/46 26/140/46 28/141/46 
f 28/141/46 30/142/46 32/143/46 
f 24/139/46 28/141/46 32/143/46 
f 16/135/46 24/139/46 32/143/46 
f 32/143/46 34/144/46 36/145/46 
f 36/145/46 38/146/46 40/147/46 
f 32/143/46 36/145/46 40/147/46 
f 40/147/46 42/148/46 44/149/46 
f 44/149/46 46/150/46 48/151/46 
f 40/147/46 44/149/46 48/151/46 
f 32/143/46 40/147/46 48/151/46 
f 48/151/46 50/152/46 52/153/46 
f 52/153/46 54/154/46 56/155/46 
f 48/151/46 52/153/46 56/155/46 
f 56/155/46 58/156/46 60/157/46 
f 60/157/46 62/158/46 64/159/46 
f 56/155/46 60/157/46 64/159/46 
f 48/151/46 56/155/46 64/159/46 
f 64/159/46 66/160/46 68/161/46 
f 68/161/46 70/162/46 72/163/46 
f 64/159/46 68/161/46 72/163/46 
f 72/163/46 74/164/46 76/165/46 
f 76/165/46 78/166/46 80/167/46 
f 72/163/46 76/165/46 80/167/46 
f 64/159/46 72/163/46 80/167/46 
f 48/151/46 64/159/46 80/167/46 
f 32/143/46 48/151/46 80/167/46 
f 16/135/46 32/143/46 80/167/46 
f 8/131/46 16/135/46 80/167/46 
f 3/129/46 8/131/46 80/167/46 
f 4/168/46 3/129/46 80/167/46 
# 156 faces

