# 3ds Max Wavefront OBJ Exporter v0.97b - (c)2007 guruware
# File Created: 19.06.2015 15:54:42

mtllib rhombus.mtl

#
# object Box001
#

v  1.2086 0.2030 60.9150
v  -15.4106 0.3710 29.7540
v  1.2086 0.2030 -1.4070
v  17.8278 0.3710 29.7540
v  1.2086 1.1822 60.9150
v  17.8278 1.0141 29.7540
v  1.2086 1.1822 -1.4070
v  -15.4106 1.0141 29.7540
# 8 vertices

vn 0.0000 -1.0000 -0.0000
vn -0.0123 -0.9999 -0.0000
vn -0.0000 -1.0000 -0.0000
vn 0.0123 -0.9999 -0.0000
vn -0.0000 1.0000 -0.0000
vn 0.0123 0.9999 -0.0000
vn -0.0123 0.9999 -0.0000
vn 0.8593 0.0000 0.5114
vn 0.8593 0.0000 -0.5114
vn -0.8593 0.0000 -0.5114
vn -0.8593 0.0000 0.5114
# 11 vertex normals

vt 0.0100 0.9042 0.0000
vt 0.2463 0.4696 0.0000
vt 0.7410 0.4700 0.0000
vt 0.5047 0.9046 0.0000
vt 0.7410 0.0104 0.0000
vt 0.5047 0.4451 0.0000
vt 0.0100 0.4447 0.0000
vt 0.2463 0.0100 0.0000
vt 0.8603 0.9900 0.0000
vt 0.4351 0.9869 0.0000
vt 0.4351 0.9749 0.0000
vt 0.8603 0.9718 0.0000
vt 0.0100 0.9900 0.0000
vt 0.0100 0.9718 0.0000
vt 0.8603 0.9473 0.0000
vt 0.4351 0.9442 0.0000
vt 0.4351 0.9323 0.0000
vt 0.8603 0.9291 0.0000
vt 0.0100 0.9473 0.0000
vt 0.0100 0.9291 0.0000
# 20 texture coords

g Box001
usemtl 13___Default
s 2
f 1/1/1 2/2/2 3/3/3 
f 3/3/3 4/4/4 1/1/1 
s 4
f 5/5/5 6/6/6 7/7/5 
f 7/7/5 8/8/7 5/5/5 
s 8
f 1/9/8 4/10/8 6/11/8 
f 6/11/8 5/12/8 1/9/8 
s 16
f 4/10/9 3/13/9 7/14/9 
f 7/14/9 6/11/9 4/10/9 
s 32
f 3/15/10 2/16/10 8/17/10 
f 8/17/10 7/18/10 3/15/10 
s 64
f 2/16/11 1/19/11 5/20/11 
f 5/20/11 8/17/11 2/16/11 
# 12 faces

