# 3ds Max Wavefront OBJ Exporter v0.97b - (c)2007 guruware
# File Created: 29.04.2015 18:05:45

mtllib star.mtl

#
# object Star001
#

v  19.9079 5.7427 4.0145
v  12.1329 5.1812 27.6538
v  12.1363 4.7554 27.6449
v  19.9113 5.3169 4.0055
v  32.4426 5.0390 42.0442
v  32.4460 4.6132 42.0352
v  7.5521 4.8425 41.9523
v  7.5555 4.4168 41.9433
v  0.1427 4.2814 65.7088
v  0.1461 3.8557 65.6998
v  -7.4655 4.7215 42.0127
v  -7.4621 4.2958 42.0037
v  -32.3544 4.5169 42.3047
v  -32.3510 4.0912 42.2957
v  -12.1660 4.9854 27.7515
v  -12.1626 4.5597 27.7425
v  -20.1388 5.4200 4.1754
v  -20.1354 4.9943 4.1664
v  -0.0535 5.2695 18.8773
v  -0.0501 4.8437 18.8683
# 20 vertices

vn 0.9499 0.0010 0.3125
vn 0.5781 0.0218 -0.8157
vn -0.0035 -0.0212 0.9998
vn 0.9546 0.0013 0.2978
vn -0.9521 -0.0140 0.3054
vn 0.0119 -0.0210 0.9997
vn -0.5849 0.0125 -0.8110
vn -0.9473 -0.0143 0.3201
vn 0.5906 0.0218 -0.8067
vn -0.5974 0.0122 -0.8019
vn -0.0080 0.9997 0.0211
vn 0.0080 -0.9997 -0.0211
# 12 vertex normals

vt 0.7217 0.5413 0.0000
vt 0.5384 0.5413 0.0000
vt 0.5384 0.5380 0.0000
vt 0.7217 0.5380 0.0000
vt 0.7307 0.0374 0.0000
vt 0.5384 0.0374 0.0000
vt 0.5384 0.0341 0.0000
vt 0.7307 0.0341 0.0000
vt 0.3298 0.6824 0.0000
vt 0.4862 0.6824 0.0000
vt 0.4862 0.6857 0.0000
vt 0.3298 0.6857 0.0000
vt 0.9340 0.0374 0.0000
vt 0.7515 0.0374 0.0000
vt 0.7515 0.0341 0.0000
vt 0.9340 0.0341 0.0000
vt 0.7307 0.0133 0.0000
vt 0.5384 0.0133 0.0000
vt 0.5384 0.0100 0.0000
vt 0.7307 0.0100 0.0000
vt 0.7307 0.5172 0.0000
vt 0.5384 0.5172 0.0000
vt 0.5384 0.5139 0.0000
vt 0.7307 0.5139 0.0000
vt 0.7208 0.0616 0.0000
vt 0.5384 0.0616 0.0000
vt 0.5384 0.0583 0.0000
vt 0.7208 0.0583 0.0000
vt 0.0100 0.6824 0.0000
vt 0.1664 0.6824 0.0000
vt 0.1664 0.6857 0.0000
vt 0.0100 0.6857 0.0000
vt 0.9438 0.0133 0.0000
vt 0.7515 0.0133 0.0000
vt 0.7515 0.0100 0.0000
vt 0.9438 0.0100 0.0000
vt 0.9349 0.5172 0.0000
vt 0.7515 0.5172 0.0000
vt 0.7515 0.5139 0.0000
vt 0.9349 0.5139 0.0000
vt 0.3542 0.8076 0.0000
vt 0.3183 0.6972 0.0000
vt 0.5106 0.6958 0.0000
vt 0.2023 0.6972 0.0000
vt 0.1664 0.8076 0.0000
vt 0.0100 0.6958 0.0000
vt 0.2603 0.5139 0.0000
vt 0.2603 0.8758 0.0000
vt 0.4150 0.9900 0.0000
vt 0.1056 0.9900 0.0000
vt 0.1664 0.3037 0.0000
vt 0.0100 0.1919 0.0000
vt 0.2023 0.1933 0.0000
vt 0.3183 0.1933 0.0000
vt 0.5106 0.1919 0.0000
vt 0.3542 0.3037 0.0000
vt 0.2603 0.0100 0.0000
vt 0.2603 0.3719 0.0000
vt 0.1056 0.4861 0.0000
vt 0.4150 0.4861 0.0000
# 60 texture coords

g Star001
usemtl 13___Default
s 1
f 1/1/1 2/2/1 3/3/1 
f 1/1/1 3/3/1 4/4/1 
s 4
f 2/5/2 5/6/2 6/7/2 
f 2/5/2 6/7/2 3/8/2 
s 2
f 5/9/3 7/10/3 8/11/3 
f 5/9/3 8/11/3 6/12/3 
s 4
f 7/13/4 9/14/4 10/15/4 
f 7/13/4 10/15/4 8/16/4 
s 2
f 9/17/5 11/18/5 12/19/5 
f 9/17/5 12/19/5 10/20/5 
s 4
f 11/21/6 13/22/6 14/23/6 
f 11/21/6 14/23/6 12/24/6 
s 2
f 13/25/7 15/26/7 16/27/7 
f 13/25/7 16/27/7 14/28/7 
s 4
f 15/29/8 17/30/8 18/31/8 
f 15/29/8 18/31/8 16/32/8 
s 2
f 17/33/9 19/34/9 20/35/9 
f 17/33/9 20/35/9 18/36/9 
s 4
f 19/37/10 1/38/10 4/39/10 
f 19/37/10 4/39/10 20/40/10 
s 16
f 15/41/11 19/42/11 17/43/11 
f 2/44/11 7/45/11 5/46/11 
f 19/42/11 2/44/11 1/47/11 
f 11/48/11 15/41/11 13/49/11 
f 7/45/11 11/48/11 9/50/11 
f 7/45/11 15/41/11 11/48/11 
f 2/44/11 15/41/11 7/45/11 
f 19/42/11 15/41/11 2/44/11 
f 16/51/12 18/52/12 20/53/12 
f 3/54/12 6/55/12 8/56/12 
f 20/53/12 4/57/12 3/54/12 
f 12/58/12 14/59/12 16/51/12 
f 8/56/12 10/60/12 12/58/12 
f 8/56/12 12/58/12 16/51/12 
f 3/54/12 8/56/12 16/51/12 
f 20/53/12 3/54/12 16/51/12 
# 36 faces

